<svg width="242" height="66" viewBox="0 0 242 66" fill="none" xmlns="http://www.w3.org/2000/svg">
<circle cx="32.5333" cy="33.4667" r="31.5333" fill="white" stroke="#231F20" stroke-width="2"/>
<path d="M61.3926 33.2115C61.2657 33.1339 61.1364 33.0621 61.0081 32.988L61.3926 33.2115Z" fill="#ECD7A0"/>
<path d="M61.0093 32.9886C58.2524 50.88 43.496 60.6859 33.1701 60.6859C30.0312 60.6859 11.9112 60.6698 9.27899 43.8587C11.7957 46.2776 15.6423 51.7541 24.8411 51.7541C31.9555 51.7541 42.3679 43.9744 40.2854 32.4842C45.0001 30.2431 54.0274 28.9665 61.0093 32.9886Z" fill="#ECD7A0"/>
<path d="M26.7725 46.3198C26.5625 46.3198 26.3496 46.3734 26.1546 46.486C25.999 46.576 25.8707 46.6945 25.7716 46.8312C25.8425 47.242 25.7914 47.6618 25.6328 48.0397C25.6526 48.0864 25.6753 48.1327 25.7013 48.178C25.9306 48.5753 26.3469 48.7976 26.7748 48.7976C26.9848 48.7976 27.1977 48.744 27.3928 48.6314C27.985 48.2894 28.1879 47.5318 27.846 46.9394C27.6167 46.5421 27.2004 46.3198 26.7725 46.3198Z" fill="#8C2446"/>
<path d="M24.5523 43.3684C24.4988 43.3993 24.4434 43.4264 24.3867 43.4502C24.4035 43.6872 24.3812 43.9277 24.318 44.1638C24.2912 44.2634 24.2577 44.3598 24.2181 44.4532C24.2564 44.5646 24.3055 44.6742 24.3667 44.7802C24.7108 45.3762 25.3351 45.7095 25.977 45.7095C26.2921 45.7095 26.6115 45.6291 26.904 45.4601C27.7922 44.9471 28.0966 43.8109 27.5838 42.9222C27.2398 42.3262 26.6154 41.9929 25.9736 41.9929C25.7377 41.9929 25.4993 42.0379 25.2718 42.1316C25.2671 42.6252 25.0096 43.1043 24.5523 43.3684Z" fill="#8C2446"/>
<path d="M28.8295 44.3967C28.6195 44.3967 28.4066 44.4503 28.2116 44.5629C28.0963 44.6293 27.996 44.7118 27.9114 44.8057C27.8126 44.9151 27.7357 45.04 27.682 45.1737C27.5455 45.5145 27.5606 45.9122 27.7583 46.2547C27.9876 46.6522 28.4039 46.8743 28.8318 46.8743C29.0419 46.8743 29.2547 46.8207 29.4498 46.7081C30.042 46.3661 30.2449 45.6086 29.903 45.0163C29.6737 44.6188 29.2574 44.3967 28.8295 44.3967Z" fill="#8C2446"/>
<path d="M23.2388 41.6971C23.5918 41.8845 23.893 42.1676 24.0986 42.5239C24.1241 42.568 24.1473 42.613 24.1696 42.6583C24.1967 42.714 24.2217 42.7704 24.2438 42.8277C24.2688 42.8919 24.2906 42.9573 24.3091 43.0231C24.3293 43.0945 24.3453 43.167 24.3578 43.24C24.3882 43.2256 24.4181 43.2104 24.4476 43.1933C24.8098 42.9841 25.0261 42.6196 25.0614 42.2322C25.0668 42.1746 25.068 42.1165 25.065 42.0584C25.0625 42.0052 25.0566 41.9518 25.047 41.8988C25.0222 41.7626 24.9742 41.6282 24.9008 41.5013C24.6876 41.1318 24.3129 40.9142 23.9174 40.8853C23.7627 41.208 23.5313 41.4859 23.2388 41.6971Z" fill="#8C2446"/>
<path d="M31.141 45.5374C30.9835 45.5374 30.8238 45.5775 30.6776 45.6619C30.2335 45.9184 30.0813 46.4866 30.3377 46.9309C30.5097 47.229 30.8218 47.3955 31.1428 47.3955C31.3004 47.3955 31.4601 47.3554 31.6062 47.2709C32.0504 47.0144 32.2026 46.4463 31.9461 46.002C31.7741 45.7039 31.462 45.5374 31.141 45.5374Z" fill="#8C2446"/>
<path d="M28.9236 47.3257C28.8185 47.3257 28.7121 47.3525 28.6145 47.4087C28.3185 47.5797 28.2169 47.9585 28.3879 48.2546C28.5026 48.4533 28.7107 48.5645 28.9246 48.5645C29.0297 48.5645 29.1363 48.5377 29.2337 48.4813C29.5297 48.3103 29.6312 47.9315 29.4603 47.6354C29.3456 47.4367 29.1375 47.3255 28.9236 47.3257Z" fill="#8C2446"/>
<path d="M33.0951 44.9165C32.9901 44.9165 32.8836 44.9433 32.7862 44.9997C32.49 45.1707 32.3886 45.5495 32.5596 45.8456C32.6743 46.0443 32.8824 46.1555 33.0963 46.1555C33.2014 46.1555 33.3078 46.1287 33.4052 46.0723C33.7014 45.9013 33.8029 45.5225 33.6318 45.2264C33.5172 45.0275 33.309 44.9165 33.0951 44.9165Z" fill="#8C2446"/>
<path d="M21.3098 47.1326C21.2759 47.1326 21.2418 47.1356 21.2079 47.1413C21.0705 47.3455 20.8985 47.5251 20.697 47.6729C20.6803 47.803 20.7036 47.9392 20.7743 48.0615C20.889 48.2603 21.0971 48.3714 21.311 48.3714C21.4161 48.3714 21.5225 48.3446 21.6199 48.2884C21.6608 48.2646 21.6975 48.2368 21.7309 48.2061C21.5587 47.8789 21.4745 47.5199 21.4825 47.1574C21.4265 47.1411 21.3685 47.1326 21.3098 47.1326Z" fill="#8C2446"/>
<path d="M34.5248 44.5122C34.4675 44.4129 34.3635 44.3574 34.2564 44.3574C34.2039 44.3574 34.1506 44.3708 34.1019 44.399C33.954 44.4845 33.9031 44.6737 33.9886 44.8219C34.046 44.9213 34.1501 44.9768 34.2569 44.9768C34.3096 44.9768 34.3628 44.9634 34.4115 44.9352C34.5596 44.8497 34.6103 44.6603 34.5248 44.5122Z" fill="#8C2446"/>
<path d="M16.8896 44.0995C16.7889 44.0388 16.6924 43.9713 16.6008 43.8972C16.3926 44.2114 16.1112 44.4836 15.7634 44.6846C15.4454 44.8681 15.0918 44.9795 14.7292 45.0123C14.7422 45.1935 14.7952 45.3745 14.8921 45.5423C15.1214 45.9398 15.5377 46.1618 15.9656 46.1618C16.1756 46.1618 16.3885 46.1083 16.5835 45.9957C17.1758 45.6537 17.3787 44.8961 17.0368 44.3037C16.9939 44.2294 16.9445 44.1612 16.8896 44.0995Z" fill="#8C2446"/>
<path d="M25.2518 46.2718C24.9078 45.6756 24.2834 45.3424 23.6416 45.3425C23.5961 45.3425 23.5507 45.3447 23.5052 45.3481C23.4424 45.3938 23.3769 45.437 23.3088 45.4764C23.0538 45.6237 22.7717 45.7161 22.4819 45.7506C22.0304 46.1113 21.7837 46.655 21.7862 47.2111C21.7863 47.2346 21.7869 47.2584 21.7878 47.2821C21.789 47.3094 21.7906 47.3365 21.7931 47.3637C21.8083 47.5386 21.8484 47.7128 21.9152 47.8817C21.9252 47.907 21.9357 47.9324 21.9469 47.9575C21.9564 47.979 21.9669 48 21.9773 48.0213C21.9953 48.0577 22.0142 48.0939 22.0347 48.1296C22.3787 48.7258 23.0031 49.0589 23.645 49.0589C23.9601 49.0589 24.2795 48.9786 24.5719 48.8097C24.9499 48.5916 25.2216 48.2603 25.3701 47.8835C25.3972 47.8149 25.4204 47.7451 25.4392 47.6741C25.4843 47.5024 25.5052 47.3242 25.5 47.1454C25.4979 47.072 25.4909 46.9985 25.4798 46.9251C25.4465 46.7013 25.3717 46.4798 25.2518 46.2718Z" fill="#8C2446"/>
<path d="M17.9154 34.6156C17.9214 34.6156 17.9273 34.6154 17.9332 34.6154C18.5815 34.6154 19.2037 34.8203 19.7185 35.1827C19.8657 35.0226 20.0375 34.8839 20.2313 34.7719C20.542 34.5926 20.8928 34.4942 21.2493 34.4842C21.3503 33.8148 21.2343 33.1078 20.8698 32.4759C20.2963 31.4826 19.256 30.9272 18.186 30.9272C17.8556 30.9272 17.5223 30.9803 17.1991 31.0899C17.3574 31.2684 17.4991 31.4638 17.6207 31.6746C18.1561 32.6023 18.2299 33.6715 17.9154 34.6156Z" fill="#8C2446"/>
<path d="M21.2268 45.5173C20.8697 45.3299 20.5649 45.0448 20.3574 44.6853C20.273 44.5389 20.2084 44.3867 20.1613 44.2316C19.96 44.1436 19.7445 44.0909 19.5246 44.0779C19.4993 44.0936 19.4741 44.1095 19.4483 44.1245C19.0921 44.3301 18.6913 44.4454 18.2831 44.4608C17.5556 45.02 17.3364 46.0449 17.8077 46.8616C18.1517 47.4576 18.7759 47.7908 19.4179 47.7908C19.7329 47.7908 20.0523 47.7105 20.3447 47.5415C21.0687 47.1234 21.4045 46.2918 21.2268 45.5173Z" fill="#8C2446"/>
<path d="M18.1908 44.1093C18.2146 44.1093 18.2383 44.1077 18.262 44.1069C18.6064 44.0955 18.9531 44.0029 19.2724 43.8185C19.2972 43.804 19.3214 43.7889 19.3455 43.7737C20.2076 43.23 20.5618 42.1683 20.2363 41.2317C20.1881 41.1667 20.1428 41.0992 20.1017 41.0284C20.0318 40.9072 19.9754 40.7819 19.9313 40.6544C19.8382 40.528 19.7338 40.414 19.6196 40.3135C19.5752 40.3422 19.53 40.3699 19.484 40.3965C19.0133 40.6683 18.4788 40.812 17.938 40.812C17.4583 40.812 16.9931 40.6999 16.5749 40.4948C16.4919 40.5875 16.4177 40.6862 16.3527 40.7901C16.4787 40.9261 16.5906 41.0766 16.6852 41.2404C17.1152 41.9857 17.1202 42.8616 16.7763 43.5857C17.1719 43.9258 17.6766 44.1093 18.1908 44.1093Z" fill="#8C2446"/>
<path d="M22.3898 38.5152C22.0616 38.7048 21.6885 38.8051 21.3113 38.8051C21.1544 38.8051 20.9999 38.7871 20.8498 38.7541C20.693 39.1957 20.4421 39.5902 20.1138 39.9145C20.1109 40.0689 20.1273 40.2244 20.1639 40.3777C20.2048 40.5485 20.2701 40.7165 20.3623 40.8764C20.4298 40.993 20.5081 41.0992 20.595 41.1952C20.7849 41.4052 21.0163 41.5647 21.2694 41.6677C21.5666 41.5206 21.8946 41.4432 22.226 41.4432C22.3337 41.4432 22.4405 41.4521 22.5454 41.468C22.5802 41.4732 22.615 41.4785 22.6492 41.4853C22.6837 41.4923 22.7177 41.5008 22.7518 41.5094C22.8032 41.5224 22.8541 41.5369 22.9042 41.5535C23.182 41.3919 23.4024 41.1694 23.5582 40.9125C23.5809 40.875 23.6019 40.8366 23.6219 40.7977C23.6403 40.7618 23.6578 40.7258 23.6738 40.6888C23.9003 40.1673 23.8855 39.5488 23.5794 39.0184C23.379 38.6714 23.0834 38.4142 22.7449 38.2593C22.6375 38.3546 22.519 38.4406 22.3898 38.5152Z" fill="#8C2446"/>
<path d="M20.3831 35.0346C20.2222 35.1278 20.0805 35.2415 19.9594 35.3702C20.1819 35.5621 20.3781 35.7866 20.5404 36.0386C20.5669 36.0801 20.593 36.1218 20.6178 36.1647C20.6374 36.1989 20.6558 36.2336 20.6742 36.2684C20.717 36.3494 20.7559 36.4319 20.7912 36.5154C20.9907 36.989 21.0682 37.4993 21.0184 38.0087C21.0123 38.0701 21.005 38.1317 20.9952 38.193C20.9847 38.2597 20.9718 38.3261 20.9568 38.3925C20.9515 38.4163 20.9456 38.4398 20.9397 38.4636C21.0623 38.4885 21.1876 38.5019 21.3135 38.5019C21.6287 38.5019 21.9481 38.4216 22.2405 38.2528C22.2994 38.2187 22.3556 38.1817 22.4095 38.1424C22.4598 38.1055 22.508 38.0664 22.5539 38.0253C22.5967 37.9868 22.6377 37.9468 22.6763 37.905C23.2141 37.3231 23.3372 36.4371 22.9204 35.7147C22.6465 35.2404 22.195 34.9332 21.6986 34.8272C21.6155 34.8095 21.531 34.797 21.4459 34.7908C21.4008 34.7875 21.3555 34.7854 21.3101 34.7854C21.2695 34.7854 21.2288 34.7868 21.1881 34.7895C20.9131 34.8077 20.638 34.8875 20.3831 35.0346Z" fill="#8C2446"/>
<path d="M24.0655 43.3365C24.0619 43.3112 24.0578 43.2858 24.053 43.2607C24.0365 43.1737 24.0141 43.0875 23.9848 43.0024C23.9464 42.8908 23.8974 42.7814 23.8362 42.6754C23.6217 42.3037 23.298 42.0342 22.9292 41.8839C22.8597 41.8557 22.7887 41.8321 22.7165 41.8123C22.6893 41.805 22.6622 41.7986 22.6347 41.7925C22.6017 41.785 22.5687 41.7786 22.5353 41.7729C22.5021 41.7673 22.4688 41.7625 22.4354 41.7586C22.4227 41.7572 22.4099 41.7561 22.3972 41.755C22.3403 41.7497 22.2832 41.7461 22.2259 41.7461C22.0842 41.7461 21.942 41.7632 21.8014 41.7964C21.6977 41.8209 21.5951 41.8546 21.4947 41.8978C21.4285 41.9264 21.363 41.9583 21.2989 41.9953C21.2973 41.9962 21.2959 41.9972 21.2943 41.9981C20.9669 42.1886 20.7194 42.4637 20.5632 42.7798C20.5249 42.8576 20.4922 42.9379 20.4649 43.02C20.3596 43.3385 20.34 43.6842 20.4169 44.0196C20.4331 44.0901 20.4542 44.1603 20.479 44.2296C20.5125 44.3231 20.5539 44.4148 20.6034 44.5044C20.6087 44.5141 20.6137 44.5237 20.6193 44.5334C20.732 44.7288 20.8755 44.8955 21.0395 45.0321C21.1182 45.0976 21.2017 45.156 21.2889 45.2072C21.3519 45.2438 21.4167 45.2766 21.4833 45.3056C21.7179 45.4082 21.972 45.4626 22.2293 45.4626C22.2748 45.4626 22.3201 45.4605 22.3656 45.4571C22.5293 45.445 22.6927 45.4107 22.8519 45.3536C22.8872 45.3386 22.9229 45.3247 22.959 45.3116C23.0259 45.2829 23.0917 45.2506 23.1563 45.2133C23.2391 45.1656 23.3165 45.1124 23.389 45.0546C23.6042 44.8825 23.7728 44.6688 23.8902 44.4323C23.9298 44.3527 23.9634 44.2704 23.9912 44.1864C24.0597 43.9784 24.0915 43.7589 24.0838 43.538C24.0826 43.5043 24.0804 43.4704 24.0774 43.4367C24.0744 43.4033 24.0705 43.3699 24.0655 43.3365Z" fill="#8C2446"/>
<path d="M15.5842 44.3779C15.8736 44.2106 16.1099 43.9866 16.2872 43.728C16.3043 43.703 16.3208 43.6775 16.3368 43.6517C16.3393 43.6478 16.342 43.6439 16.3445 43.6398C16.3627 43.6103 16.38 43.5805 16.3966 43.5504C16.4077 43.5304 16.418 43.51 16.4284 43.4897C16.4582 43.4315 16.4853 43.372 16.5096 43.3115C16.7499 42.7146 16.7237 42.0174 16.3772 41.4169C16.3179 41.3143 16.2508 41.2192 16.1782 41.1301C16.1366 41.079 16.0933 41.0301 16.0478 40.9835C16.004 40.9389 15.9591 40.8957 15.9121 40.8554C15.7897 40.7502 15.6566 40.6612 15.5164 40.5869C15.3923 40.6863 15.2603 40.7774 15.1202 40.8584C14.8884 40.9921 14.6411 41.0947 14.3854 41.1645C14.3051 41.1865 14.2239 41.2049 14.1422 41.2204C14.0624 41.2354 13.9823 41.2472 13.9015 41.2559C13.793 41.2675 13.6838 41.2738 13.5742 41.2738C13.306 41.2738 13.0423 41.2384 12.7887 41.1717C12.4274 41.6377 12.2707 42.2354 12.3574 42.8196C12.3682 42.8917 12.3826 42.9636 12.4008 43.0352C12.4186 43.105 12.4401 43.1743 12.465 43.2428C12.5075 43.3592 12.56 43.4736 12.624 43.5845C13.0253 44.2799 13.7537 44.6687 14.5026 44.6687C14.5169 44.6687 14.5312 44.6676 14.5455 44.6672C14.5801 44.6665 14.6145 44.6658 14.6491 44.6635C14.6839 44.661 14.7187 44.6574 14.7535 44.6533C15.038 44.6201 15.3204 44.5301 15.5842 44.3779Z" fill="#8C2446"/>
<path d="M14.5048 37.0784C14.0048 37.0784 13.5183 36.9733 13.0726 36.7798C13.0551 36.898 13.0316 37.0158 13.0002 37.133C12.958 37.2905 12.9038 37.4427 12.8392 37.5891C12.8098 37.6555 12.7778 37.7205 12.7441 37.7844C12.7104 37.8481 12.6754 37.9109 12.6374 37.9718C12.3722 38.3982 12.0045 38.7556 11.5573 39.0139C11.4183 39.0942 11.2736 39.1629 11.1248 39.2206C11.1663 39.3177 11.2134 39.4135 11.2675 39.5074C11.6069 40.0954 12.1365 40.5049 12.7337 40.7032C12.7989 40.7248 12.8649 40.7435 12.9315 40.7601C13.0043 40.7782 13.0778 40.7935 13.1518 40.8055C13.2915 40.8278 13.4332 40.8394 13.5756 40.8394C13.7257 40.8394 13.8763 40.8264 14.0262 40.8005C14.102 40.7875 14.1775 40.7712 14.2526 40.7514C14.3295 40.731 14.4059 40.7068 14.4816 40.6793C14.6254 40.6268 14.7669 40.5615 14.9041 40.4822C14.9491 40.4562 14.9928 40.4288 15.0356 40.4006C15.0986 40.3592 15.1593 40.3155 15.2178 40.2696C15.272 40.2271 15.324 40.1827 15.3743 40.1366C15.4812 40.0385 15.5786 39.933 15.6664 39.8211C15.5097 39.6526 15.3707 39.4658 15.2533 39.2625C14.8527 38.5685 14.7523 37.7821 14.9109 37.0547C14.7763 37.07 14.6407 37.0784 14.5048 37.0784Z" fill="#8C2446"/>
<path d="M16.0687 39.6136C16.1217 39.6658 16.1768 39.715 16.2334 39.7621C16.3415 39.8521 16.4561 39.9328 16.5756 40.0037C16.6306 40.0361 16.6864 40.0667 16.7434 40.095C16.8037 40.1252 16.8649 40.1532 16.9271 40.1786C17.2469 40.3092 17.5904 40.3773 17.9377 40.3773C18.3759 40.3773 18.8202 40.2684 19.2292 40.0404C19.2415 40.0336 19.254 40.027 19.2661 40.0201C19.3122 39.9935 19.357 39.9653 19.4009 39.9364C19.4544 39.901 19.5061 39.8639 19.5565 39.8252C19.6607 39.7454 19.7576 39.6588 19.8471 39.5665C19.9278 39.4835 20.0026 39.3959 20.0707 39.3043C20.2147 39.1104 20.3303 38.8993 20.4164 38.677C20.4239 38.6578 20.4312 38.6383 20.4383 38.6189C20.4556 38.571 20.4711 38.5226 20.4858 38.4739C20.4981 38.4323 20.5095 38.3904 20.5199 38.3481C20.5216 38.3409 20.5232 38.3338 20.525 38.3267C20.6401 37.8404 20.6194 37.3215 20.4463 36.8308C20.4171 36.7478 20.3835 36.6659 20.3455 36.585C20.3136 36.5167 20.279 36.4488 20.2406 36.3823C20.2356 36.3735 20.2302 36.3651 20.2251 36.3564C20.0802 36.1118 19.9023 35.8987 19.7001 35.7197C19.6617 35.6858 19.6227 35.6529 19.5827 35.6215C19.5424 35.5897 19.5011 35.559 19.4592 35.5297C19.011 35.217 18.4762 35.0503 17.9327 35.0503C17.867 35.0503 17.8011 35.053 17.7353 35.058C17.4453 35.6531 16.9885 36.1736 16.387 36.5434C16.3586 36.5608 16.331 36.5786 16.3021 36.5952C16.2857 36.6048 16.2689 36.6138 16.2523 36.6229C16.2179 36.6422 16.1832 36.6605 16.1484 36.6786C16.1186 36.6939 16.0888 36.7087 16.0589 36.7232C16.0041 36.7494 15.9489 36.7744 15.8931 36.7978C15.8818 36.8026 15.8704 36.8073 15.859 36.8119C15.7031 36.8755 15.5428 36.9278 15.3799 36.9688C15.184 37.6417 15.2516 38.3904 15.6295 39.0453C15.713 39.1899 15.8083 39.3234 15.9129 39.446C15.9627 39.5044 16.0146 39.5604 16.0687 39.6136Z" fill="#8C2446"/>
<path d="M11.4249 33.8256C11.4354 33.9191 11.4506 34.0123 11.4699 34.1051C11.5352 34.4201 11.6505 34.7304 11.82 35.0242C11.9069 35.1747 12.0045 35.3148 12.1112 35.4447C12.1588 35.5027 12.2081 35.5588 12.2593 35.6127C12.3125 35.6686 12.3678 35.7219 12.4245 35.7733C12.4948 35.8371 12.5678 35.8974 12.6433 35.954C12.72 36.0115 12.7991 36.065 12.8803 36.1148C12.9533 36.1596 13.0282 36.201 13.1046 36.2396C13.5375 36.4579 14.0175 36.573 14.5037 36.573C14.6954 36.573 14.8881 36.555 15.0792 36.5186C15.1677 36.5018 15.2558 36.4807 15.3435 36.4559C15.3927 36.442 15.4418 36.427 15.4907 36.4104C15.5096 36.404 15.5285 36.3972 15.5474 36.3904C15.5804 36.3785 15.6134 36.366 15.6461 36.3527C15.6786 36.3399 15.7107 36.3263 15.7428 36.3122C15.7485 36.3097 15.7542 36.3074 15.7599 36.3049C15.8277 36.2746 15.895 36.2417 15.9614 36.206C15.9676 36.2028 15.9737 36.1992 15.9799 36.1958C16.0028 36.1834 16.0258 36.1709 16.0486 36.1576C16.476 35.9108 16.8216 35.5772 17.0775 35.1921C17.1362 35.1036 17.1901 35.0122 17.2394 34.9187C17.282 34.8376 17.3211 34.7548 17.3563 34.6706C17.7153 33.8098 17.6837 32.7978 17.1816 31.9277C17.0475 31.6955 16.8878 31.4876 16.7083 31.3048C16.6461 31.2412 16.5816 31.1807 16.5147 31.1234C16.4462 31.0645 16.375 31.0092 16.3022 30.9571C15.7749 30.5803 15.1418 30.3789 14.498 30.3789C13.9729 30.3789 13.4404 30.5128 12.9531 30.7943C11.932 31.384 11.3741 32.4677 11.4064 33.5694C11.4089 33.6547 11.4153 33.7402 11.4249 33.8256Z" fill="#8C2446"/>
<path d="M39.9183 58.8988C33.5281 61.2582 25.5648 60.6193 19.4634 57.6403C14.3858 55.1612 11.2399 50.5853 10.0811 45.18C11.289 46.4045 12.4959 47.6142 13.9249 48.6158C16.6304 50.512 19.833 51.6071 23.1125 51.9216C29.3124 52.516 35.2445 49.3428 38.643 44.1547C39.8611 42.2953 40.6301 40.26 40.9731 38.1455C46.5434 36.1592 53.3247 37.1448 58.3699 40.1097C55.058 48.5453 48.5844 55.699 39.9183 58.8988ZM60.2892 33.3451C59.9494 35.229 59.4576 37.0865 58.8226 38.8925C53.5345 35.9908 46.7909 35.2751 41.0907 37.2652C41.2454 35.7999 41.2002 34.3037 40.9622 32.8073C46.9558 30.1875 54.5008 30.2475 60.2892 33.3451ZM61.7934 32.6879C55.3896 28.8868 46.7256 28.8687 40.0261 31.9766C39.871 32.0485 39.767 32.1456 39.7051 32.2525C39.6541 32.2699 39.6266 32.2984 39.6335 32.3398C39.6375 32.363 39.6409 32.3862 39.6446 32.4093C39.6187 32.5346 39.6407 32.6627 39.7003 32.7729C40.5893 39.0366 37.7473 45.0126 32.5525 48.6065C27.3528 52.204 20.6538 52.4474 15.3085 48.8985C13.232 47.5198 11.6446 45.6646 9.87482 43.9434C9.81861 43.8887 9.69584 43.8354 9.54899 43.7904C9.18051 43.5683 8.64555 43.4241 8.67142 43.5817C8.67713 43.6156 8.68356 43.6494 8.68927 43.6833C8.64127 43.6999 8.63145 43.7302 8.68034 43.7779C8.69069 43.7879 8.70086 43.7981 8.71121 43.8082C9.61073 48.9483 12.2224 53.4227 16.547 56.419C20.0157 58.8224 24.1357 60.1484 28.2887 60.7244C31.2922 61.1411 34.4176 61.2787 37.4047 60.6839C42.6699 59.6358 47.5259 56.7569 51.3979 53.0932C56.8332 47.9501 60.2695 41.1136 61.5338 33.7732C61.9879 33.5997 62.3112 32.9953 61.7934 32.6879Z" fill="#231F20"/>
<path d="M21.1597 52.6204C21.1597 52.6204 36.6179 56.5368 42.4955 38.6073C42.4955 38.6073 45.2544 37.6338 47.0352 38.3078C46.4306 40.1558 39.2047 58.0755 21.1597 52.6204Z" fill="#D8BB8C"/>
<path d="M13.138 26.8025C11.1329 28.2604 8.80138 28.8008 6.34998 29.0325C5.5263 29.1105 5.88764 30.3953 6.59676 30.3282C7.5432 30.2388 8.47234 30.1072 9.37506 29.9039C9.31975 30.1311 9.28906 30.3616 9.28406 30.5836C9.26782 31.3301 9.71321 31.8959 10.1648 32.4427C10.3788 32.7017 11.3834 33.1508 10.8781 32.5391C10.1234 31.6253 10.1782 30.3362 10.9617 29.4562C12.0119 29.0926 13.0149 28.5971 13.9533 27.9149C14.5518 27.4795 13.7381 26.366 13.138 26.8025Z" fill="#8D2446"/>
<path d="M112.705 57.0686H109.771V62.605H108.593V56.136H112.705V57.0686Z" fill="#231F20"/>
<path d="M118.245 59.49C118.245 58.7567 118.1 58.1539 117.812 57.6814C117.523 57.2091 117.097 56.9729 116.536 56.9729C116.197 56.9729 115.908 57.0499 115.669 57.2032C115.43 57.3567 115.237 57.567 115.089 57.8338V60.9608C115.237 61.2278 115.43 61.4361 115.669 61.5855C115.908 61.7349 116.201 61.8097 116.547 61.8097C117.105 61.8097 117.528 61.6055 117.815 61.1969C118.102 60.7884 118.245 60.2613 118.245 59.6156V59.49ZM119.422 59.6156C119.422 60.5483 119.199 61.3007 118.753 61.8726C118.307 62.4445 117.691 62.7304 116.906 62.7304C116.508 62.7304 116.158 62.6637 115.857 62.5302C115.556 62.3966 115.3 62.1964 115.089 61.9293V65.092H113.912V56.136H114.814L115 56.9729C115.211 56.6622 115.474 56.4249 115.789 56.2616C116.103 56.0981 116.47 56.0164 116.888 56.0164C117.689 56.0164 118.312 56.3343 118.756 56.9701C119.2 57.6059 119.422 58.4457 119.422 59.49V59.6156Z" fill="#231F20"/>
<path d="M123.026 60.2076L123.235 61.0206H123.271L124.86 56.136H126.169L123.45 63.5974C123.286 64.0317 123.052 64.4105 122.748 64.7334C122.443 65.0561 122.031 65.2177 121.513 65.2177C121.418 65.2177 121.296 65.2066 121.149 65.1848C121.001 65.1629 120.888 65.1418 120.808 65.122L120.928 64.1952C120.904 64.1913 120.974 64.1952 121.14 64.2072C121.305 64.2192 121.41 64.2252 121.454 64.2252C121.705 64.2252 121.91 64.1137 122.069 63.8904C122.228 63.6671 122.362 63.42 122.47 63.1491L122.751 62.4734L120.348 56.136H121.663L123.026 60.2076Z" fill="#231F20"/>
<path d="M129.959 58.8263C130.417 58.8263 130.755 58.7467 130.972 58.5873C131.189 58.4279 131.298 58.2007 131.298 57.9058C131.298 57.6387 131.177 57.4104 130.936 57.2211C130.695 57.0318 130.345 56.9371 129.887 56.9371C129.481 56.9371 129.14 57.0349 128.865 57.2302C128.59 57.4254 128.453 57.6627 128.453 57.9415H127.341L127.329 57.9058C127.305 57.3517 127.542 56.9003 128.041 56.5515C128.539 56.2027 129.154 56.0283 129.887 56.0283C130.684 56.0283 131.315 56.1908 131.779 56.5156C132.243 56.8405 132.475 57.3039 132.475 57.9058C132.475 58.1967 132.379 58.4638 132.185 58.7069C131.992 58.95 131.724 59.1413 131.381 59.2808C131.772 59.4084 132.072 59.5997 132.281 59.8546C132.49 60.1099 132.595 60.4189 132.595 60.7814C132.595 61.3833 132.344 61.8567 131.842 62.2014C131.34 62.546 130.688 62.7185 129.887 62.7185C129.15 62.7185 128.517 62.548 127.987 62.2074C127.457 61.8665 127.204 61.3733 127.228 60.7277L127.24 60.6918H128.351C128.351 60.9947 128.495 61.2578 128.782 61.4809C129.069 61.7042 129.437 61.8158 129.887 61.8158C130.353 61.8158 130.724 61.7162 130.999 61.5168C131.274 61.3176 131.411 61.0724 131.411 60.7814C131.411 60.4387 131.29 60.1866 131.047 60.0251C130.804 59.8637 130.441 59.7831 129.959 59.7831H128.716V58.8263H129.959Z" fill="#231F20"/>
<path d="M138.35 56.136H139.527V62.605H138.35V58.0133L138.314 58.0013L135.457 62.605H134.285V56.136H135.457V60.7277L135.493 60.7397L138.35 56.136Z" fill="#231F20"/>
<path d="M146.722 62.605H145.544V59.8547H142.664V62.605H141.486V56.136H142.664V58.934H145.544V56.136H146.722V62.605Z" fill="#231F20"/>
<path d="M151.26 61.8097C151.622 61.8097 151.939 61.6892 152.21 61.4481C152.481 61.2069 152.616 60.911 152.616 60.5602H153.68L153.698 60.5961C153.714 61.1541 153.475 61.6493 152.981 62.0818C152.487 62.5143 151.913 62.7304 151.26 62.7304C150.351 62.7304 149.65 62.4216 149.156 61.8038C148.662 61.1861 148.415 60.4167 148.415 59.496V59.2449C148.415 58.3322 148.663 57.5659 149.159 56.9462C149.655 56.3264 150.355 56.0164 151.26 56.0164C151.981 56.0164 152.572 56.2397 153.032 56.6861C153.492 57.1325 153.714 57.6805 153.698 58.3302L153.686 58.3661H152.616C152.616 57.9715 152.488 57.6357 152.231 57.3587C151.974 57.0816 151.65 56.9431 151.26 56.9431C150.682 56.9431 150.261 57.1673 149.996 57.6157C149.731 58.0641 149.598 58.6073 149.598 59.2449V59.496C149.598 60.1458 149.729 60.6938 149.99 61.1402C150.251 61.5866 150.674 61.8097 151.26 61.8097Z" fill="#231F20"/>
<path d="M157.183 59.8607H156.579V62.605H155.402V56.136H156.579V58.8683H157.081L159.394 56.136H160.775L160.786 56.166L158.103 59.239L160.99 62.575L160.978 62.605H159.531L157.183 59.8607Z" fill="#231F20"/>
<path d="M164.3 61.744C164.726 61.744 165.111 61.6344 165.454 61.4151C165.796 61.1961 166.019 60.9449 166.123 60.6618V59.6096H164.802C164.328 59.6096 163.948 59.7291 163.663 59.9683C163.378 60.2075 163.236 60.4885 163.236 60.8114C163.236 61.0982 163.326 61.3255 163.505 61.4929C163.684 61.6603 163.949 61.744 164.3 61.744ZM166.254 62.6049C166.214 62.4097 166.184 62.2372 166.162 62.0878C166.14 61.9383 166.127 61.788 166.123 61.6364C165.904 61.9472 165.618 62.2074 165.265 62.4166C164.912 62.6258 164.533 62.7304 164.127 62.7304C163.453 62.7304 162.94 62.558 162.588 62.2133C162.235 61.8686 162.059 61.3933 162.059 60.7875C162.059 60.1697 162.309 59.6863 162.809 59.3375C163.309 58.9887 163.987 58.8145 164.844 58.8145H166.123V58.1748C166.123 57.7962 166.007 57.4961 165.776 57.275C165.545 57.0538 165.218 56.9431 164.796 56.9431C164.413 56.9431 164.105 57.0388 163.87 57.2302C163.635 57.4213 163.517 57.6507 163.517 57.9177L162.399 57.9295L162.387 57.8936C162.359 57.4235 162.58 56.9929 163.048 56.6024C163.516 56.2118 164.121 56.0164 164.862 56.0164C165.595 56.0164 166.185 56.2027 166.631 56.5754C167.077 56.9481 167.3 57.4852 167.3 58.1867V61.3015C167.3 61.5327 167.312 61.756 167.336 61.9711C167.36 62.1864 167.404 62.3977 167.468 62.6049H166.254Z" fill="#231F20"/>
<path d="M170.41 58.127C170.41 58.4138 170.507 58.6591 170.703 58.8622C170.898 59.0655 171.191 59.1673 171.581 59.1673H173.261V57.0508H171.707C171.28 57.0508 170.958 57.1574 170.739 57.3707C170.519 57.5838 170.41 57.836 170.41 58.127ZM174.438 56.136V62.605H173.261V60.0939H171.665L170.135 62.605H168.868L170.506 59.9205C170.095 59.7731 169.779 59.54 169.558 59.221C169.337 58.9022 169.226 58.5334 169.226 58.115C169.226 57.5331 169.446 57.0578 169.887 56.689C170.327 56.3204 170.934 56.136 171.707 56.136H174.438Z" fill="#231F20"/>
<path d="M181.578 59.8607H180.974V62.605H179.797V56.136H180.974V58.8683H181.477L183.79 56.136H185.17L185.182 56.166L182.499 59.239L185.385 62.575L185.373 62.605H183.927L181.578 59.8607Z" fill="#231F20"/>
<path d="M188.655 60.2076L188.864 61.0206H188.9L190.49 56.136H191.799L189.079 63.5974C188.916 64.0317 188.682 64.4105 188.377 64.7334C188.072 65.0561 187.661 65.2177 187.143 65.2177C187.047 65.2177 186.926 65.2066 186.778 65.1848C186.631 65.1629 186.517 65.1418 186.438 65.122L186.557 64.1952C186.533 64.1913 186.604 64.1952 186.769 64.2072C186.935 64.2192 187.039 64.2252 187.083 64.2252C187.334 64.2252 187.539 64.1137 187.699 63.8904C187.858 63.6671 187.992 63.42 188.099 63.1491L188.38 62.4734L185.978 56.136H187.292L188.655 60.2076Z" fill="#231F20"/>
<path d="M195.271 58.5215L196.645 56.136H198.02L195.922 59.3345L198.08 62.605H196.729L195.294 60.1597L193.86 62.605H192.497L194.655 59.3345L192.557 56.136H193.914L195.271 58.5215Z" fill="#231F20"/>
<path d="M204.712 62.605H203.534V59.8547H200.654V62.605H199.476V56.136H200.654V58.934H203.534V56.136H204.712V62.605Z" fill="#231F20"/>
<path d="M207.831 58.127C207.831 58.4138 207.928 58.6591 208.124 58.8622C208.319 59.0655 208.612 59.1673 209.002 59.1673H210.681V57.0508H209.128C208.701 57.0508 208.378 57.1574 208.159 57.3707C207.94 57.5838 207.831 57.836 207.831 58.127ZM211.859 56.136V62.605H210.681V60.0939H209.086L207.556 62.605H206.289L207.926 59.9205C207.516 59.7731 207.2 59.54 206.979 59.221C206.758 58.9022 206.647 58.5334 206.647 58.115C206.647 57.5331 206.867 57.0578 207.308 56.689C207.748 56.3204 208.355 56.136 209.128 56.136H211.859Z" fill="#231F20"/>
<path d="M99.7703 18.7297C99.1713 17.3658 98.02 16.8869 95.6865 17.0698C93.3529 17.2528 92.8813 19.3132 90.4732 23.0135C88.0652 26.7136 85.9798 28.1539 85.3096 28.4022C85.682 23.212 85.5826 20.944 85.4502 19.1228C85.3178 17.3017 82.7691 17.103 81.1141 17.07C79.4591 17.0368 79.5622 32.3012 79.5622 32.3012C79.5392 35.6295 79.7487 42.4582 80.1459 46.059C80.5431 49.6599 83.0505 49.4705 83.0505 49.4705C83.0505 49.4705 85.8558 49.4705 85.5082 47.7228C85.1606 45.9751 85.0862 35.2066 85.2102 33.8657C86.1288 33.8409 87.7324 33.7758 88.7106 33.2571C89.7409 32.7108 91.2179 34.2383 92.2855 37.4666C93.3529 40.695 93.3777 43.9729 93.3777 44.5937C93.3777 45.2146 93.7749 49.7343 97.2754 49.4705C100.776 49.2067 100.246 42.9962 97.8298 36.0097C95.4133 29.0232 93.4771 29.1225 93.4771 29.1225C94.5445 27.7566 100.292 20.0583 99.7703 18.7297Z" fill="#231F20"/>
<path d="M109.168 36.8704C109.168 36.8704 111.49 28.3587 111.502 28.2532C111.514 28.1475 111.868 27.7875 111.899 28.3774C111.924 29.1471 112.843 36.175 113.314 37.7147C112.073 37.6153 110.236 37.4788 109.168 36.8704ZM119.264 39.8173C118.337 35.9433 117.609 29.5943 117.311 27.2598C117.013 24.9254 116.393 21.4488 115.747 18.8413C115.102 16.2338 111.576 17.2519 110.782 17.7237C109.988 18.1955 106.587 26.7879 105.494 30.8607C104.402 34.9334 102.763 44.0226 102.317 46.7045C101.87 49.3865 104.501 49.4704 104.501 49.4704C107.613 49.4704 107.348 47.1018 107.597 45.5935C107.747 44.6857 108.151 41.8743 108.188 41.5143C108.225 41.1542 108.188 40.5707 108.97 40.7692C110.484 41.1169 114.034 41.1667 114.034 41.1667C114.034 41.1667 115.052 45.2146 115.449 46.6797C115.846 48.1448 117.568 49.7144 119.529 49.4816C121.49 49.2487 121.109 47.7475 120.886 46.928C120.663 46.1085 120.191 43.6914 119.264 39.8173Z" fill="#231F20"/>
<path d="M141.06 28.8991C140.787 34.6357 130.857 33.1954 130.658 33.1788C130.459 33.1624 129.938 33.096 129.938 32.5496C129.939 31.8042 130.857 23.0136 130.857 23.0136C131.105 22.1195 133.811 22.6659 134.456 22.6659C135.102 22.6659 141.333 23.1625 141.06 28.8991ZM131.213 16.9873C125.552 17.186 123.815 18.0965 123.326 18.262C122.838 18.4276 120.889 19.1147 121.514 21.5567C122.474 25.307 125.139 23.7917 125.139 23.7917C123.566 34.4867 125.056 45.4796 126.016 47.8472C126.863 49.9356 131.213 49.8735 130.633 47.8472C129.71 44.6156 130.021 40.513 129.888 39.0891C129.756 37.6654 130.12 37.7646 130.6 38.0461C131.08 38.3276 132.288 38.9236 135.267 39.0065C138.246 39.0891 141.54 38.0295 143.195 35.0495C144.85 32.0694 145.677 28.3279 142.665 23.3944C139.653 18.4606 136.873 16.7886 131.213 16.9873Z" fill="#231F20"/>
<path d="M155.405 16.8869C151.185 16.8869 146.319 17.1031 144.755 17.6743C143.191 18.2455 144.054 21.398 144.904 22.7155C145.897 24.2552 151.731 22.7901 154.313 23.1625C154.213 27.2103 153.742 44.1468 153.692 45.5872C153.643 47.0276 154.04 49.0888 156.614 49.3371C159.189 49.5854 158.93 46.8538 158.93 46.8538C158.93 46.8538 159.824 24.5531 159.874 23.5846C159.923 22.6161 162.803 23.088 164.963 23.2867C167.123 23.4854 167.532 24.5781 168.513 23.9075C170.23 22.7335 168.861 20.2074 167.321 18.5186C165.782 16.83 159.626 16.8869 155.405 16.8869Z" fill="#231F20"/>
<path d="M188.32 16.987C187.013 16.9704 186.566 16.8867 186.334 17.434C185.176 19.6526 183.653 33.0957 183.488 34.3209C182.892 33.9896 177.728 22.4007 176.636 19.7186C175.544 17.0367 173.392 16.8867 171.456 16.8867C169.519 16.8867 170.959 19.2882 170.959 19.2882C177.662 36.0758 179.781 39.0888 182.263 40.0326C180.616 44.5936 177.943 45.4131 177.083 45.6117C176.14 43.4762 177.215 42.3463 177.699 41.9737C178.053 41.7019 178.274 41.39 178.241 40.5457C178.194 39.3289 176.537 39.2213 175.444 39.1883C174.352 39.1551 171.174 39.4532 171.605 42.9794C172.491 50.2447 178.109 50.2806 182.776 48.3435C187.443 46.4064 189.181 36.8372 189.181 36.8372C189.181 36.8372 191.316 21.4736 191.548 19.6856C191.779 17.8976 189.628 17.0035 188.32 16.987Z" fill="#231F20"/>
<path d="M212.335 17.4007C208.214 16.8864 202.81 16.9517 201.288 17.4007C199.997 17.7814 199.699 22.6653 199.302 26.0427C198.905 29.4199 198.061 43.3268 196.174 44.9658C196.174 44.9658 195.926 41.009 192.946 41.2077C189.968 41.4063 191.027 44.9658 191.027 44.9658C191.027 44.9658 192.715 49.2537 196.356 49.2869C199.997 49.3199 202.529 46.8533 203.125 42.7806C203.721 38.7078 205.558 25.546 205.409 21.076C206.451 20.7781 207.627 20.8773 208.553 21.076C209.48 21.2746 209.666 21.3368 210.51 21.3864C210.448 22.1065 209.828 29.8506 209.795 33.1782C209.762 36.5058 209.778 43.9228 210.647 46.0586C211.516 48.1941 212.459 48.3928 213.502 48.368C214.544 48.3432 215.835 48.4426 215.612 45.4874C215.389 42.5321 215.091 36.3734 215.339 31.7047C215.587 27.0361 216.017 24.5858 215.984 22.2018C215.951 19.8177 216.456 17.9147 212.335 17.4007Z" fill="#231F20"/>
<path d="M235.997 17.0391C234.905 16.9259 234.756 17.5994 234.756 17.5994L224.776 36.7708C224.776 36.7708 225.819 19.7722 225.091 18.5263C224.065 16.7385 221.218 16.8864 220.225 17.0262C219.232 17.166 219.963 17.9298 219.96 18.7912C219.942 25.247 219.199 43.5587 219.199 43.5587C219.199 43.5587 218.773 48.4312 221.384 48.724C225.074 49.1379 225.192 47.7538 225.885 46.7374C228.798 42.466 234.458 29.6849 235.683 28.6917C235.054 30.3803 235.501 37.2675 235.253 43.0289C235.004 48.7902 235.848 49.2373 238.033 49.2873C240.218 49.3373 240.218 46.6546 240.218 46.6546C240.218 46.6546 240.913 26.9863 241.241 21.9699C241.57 16.9536 237.09 17.1522 235.997 17.0391Z" fill="#231F20"/>
<path fill-rule="evenodd" clip-rule="evenodd" d="M1.21161 28.1474L1.45585 30.6137C1.8686 30.6513 2.30355 30.6486 2.51007 30.4672C2.90905 30.1169 3.36259 29.6761 3.85497 29.1975L3.85699 29.1955L3.85707 29.1954C5.98465 27.1274 8.83686 24.3551 11.1487 25.1197C12.4734 25.5578 13.6747 26.2919 14.8798 27.0285L14.8801 27.0287C16.2371 27.8581 17.5991 28.6905 19.148 29.1067C19.5554 29.2161 21.1839 28.8684 20.926 28.7994C19.428 28.3968 18.0116 27.5512 16.5975 26.6929C16.67 26.6528 16.7328 26.6074 16.7748 26.5533C18.5825 24.2266 20.4376 21.9467 22.3644 19.7366C22.6858 19.3679 23.0689 18.8861 23.4956 18.3494L23.4959 18.3491C25.2065 16.1976 27.6166 13.1665 29.5465 13.029C30.5686 12.9563 30.6831 13.0978 31.1906 13.7254L31.1907 13.7254C31.2836 13.8404 31.3899 13.9717 31.5172 14.121L32.2479 14.9774L32.9842 15.8402L32.9942 15.852L35.9181 19.2789L36.1327 19.5303L36.3187 19.7483L40.9013 25.1191C36.797 24.4968 32.7503 24.9695 31.3543 28.7779C31.0612 29.5776 33.0556 30.1721 33.3759 29.2984C35.3588 23.8891 45.0799 27.3206 48.7802 28.7023C49.758 29.0675 50.9034 28.0834 49.5868 27.5918C48.1566 27.0576 46.0647 26.2943 43.7926 25.7148L41.0335 22.4809C41.1687 22.4123 41.3045 22.3425 41.4409 22.2725L41.4851 22.2499L41.4857 22.2495C43.3717 21.2808 45.3587 20.2603 47.3977 21.0851C48.4009 21.491 49.4433 22.3112 50.4548 23.1071C51.1121 23.6243 51.7563 24.1311 52.3683 24.5074C55.7555 26.5903 59.3099 28.2592 63.0006 29.5833C63.1871 29.6503 63.3523 29.6649 63.4953 29.64L63.5056 29.5772L63.1572 28.2414L62.8776 27.1697L62.8054 27.1339C58.0718 25.3895 53.5631 23.0557 49.4008 20.0179C49.1822 19.8583 48.962 19.6848 48.7385 19.5086L48.7362 19.5068C47.8155 18.7808 46.8393 18.0111 45.6887 17.9942C44.141 17.9714 42.3914 18.9197 40.8437 19.7586L40.8431 19.7589C40.381 20.0095 39.9368 20.2503 39.5214 20.4525L35.3917 15.6126L35.3684 15.5853L35.3037 15.5095C34.9973 15.1504 34.688 14.7299 34.3671 14.2939L34.3663 14.2927L34.3662 14.2926C33.2008 12.7086 31.8845 10.9194 30.0096 11.1165C27.6381 11.3659 25.5888 13.5965 23.9393 15.3921L23.9392 15.3922L23.9307 15.4015C23.7864 15.5585 23.6453 15.7121 23.5072 15.8608C20.6361 18.9523 17.9133 22.1987 15.2975 25.5487C13.5259 24.5248 11.718 23.6972 9.71819 23.9117C6.98769 24.2044 4.46471 26.6009 2.25837 28.6966C2.10442 28.8428 1.95201 28.9876 1.80119 29.13L1.80666 29.1023L1.80575 29.1031L1.8199 29.0358L1.83407 28.9685C1.83938 28.9437 1.84467 28.919 1.84978 28.8942C1.87371 28.7822 1.89801 28.6699 1.92286 28.5581L1.93766 28.4914C1.96507 28.369 1.9932 28.2468 2.0217 28.1248C2.02408 28.1152 2.02627 28.1056 2.02846 28.096C2.12401 27.6902 2.22633 27.2872 2.33504 26.8872L2.34764 26.8409C2.36905 26.7627 2.39063 26.6847 2.41249 26.6067L1.21161 28.1474ZM63.5057 29.5769C63.6119 28.9223 63.6765 28.2544 63.6966 27.5762L62.8797 27.1707L63.1599 28.248L63.1617 28.2549L63.1651 28.2676L63.5057 29.5769Z" fill="black"/>
</svg>
