<svg width="71" height="71" viewBox="0 0 71 71" fill="none" xmlns="http://www.w3.org/2000/svg">
<g clip-path="url(#clip0)">
<path d="M67.1588 3.50183H27.9354C25.8174 3.50183 24.0942 5.22566 24.0942 7.34443V22.8335H3.84163C1.72341 22.8335 0 24.5569 0 26.6751V47.2082C0 47.7827 0.46566 48.2482 1.04004 48.2482C1.61442 48.2482 2.08008 47.7827 2.08008 47.2082V26.6751C2.08008 25.7038 2.87037 24.9136 3.84163 24.9136H29.05C29.6243 24.9136 30.09 24.4481 30.09 23.8736C30.09 23.299 29.6243 22.8335 29.05 22.8335H26.1743V7.34443C26.1743 6.37262 26.9643 5.58191 27.9354 5.58191H67.1588C68.1299 5.58191 68.9199 6.37262 68.9199 7.34443V17.8197C68.9199 18.3942 69.3856 18.8597 69.96 18.8597C70.5343 18.8597 71 18.3942 71 17.8197V7.34443C71 5.22566 69.2769 3.50183 67.1588 3.50183Z" fill="#8C2446"/>
<path d="M69.96 21.639C69.3856 21.639 68.9199 22.1046 68.9199 22.6791V35.3603C68.9199 36.3315 68.1299 37.1215 67.1588 37.1215H64.0761C63.5017 37.1215 63.0361 37.587 63.0361 38.1615V44.6157L55.8464 37.426C55.6514 37.231 55.3868 37.1215 55.111 37.1215H46.906V29.0323C47.1272 28.8055 47.342 28.5762 47.55 28.3449C49.8237 30.8771 52.8822 33.1677 56.9987 34.6574C57.1156 34.6997 57.235 34.7197 57.3526 34.7197C57.7781 34.7197 58.1774 34.4566 58.3307 34.0334C58.5262 33.4931 58.2468 32.897 57.7066 32.7014C53.8352 31.3003 50.9867 29.1166 48.8903 26.7123C52.809 21.4872 53.8392 15.7104 54.1023 13.427H57.2127C57.7871 13.427 58.2527 12.9615 58.2527 12.387C58.2527 11.8125 57.7871 11.3469 57.2127 11.3469H48.5872V9.02502C48.5872 8.45051 48.1215 7.98499 47.5471 7.98499C46.9727 7.98499 46.5071 8.45051 46.5071 9.02502V11.3469H37.8816C37.3072 11.3469 36.8415 11.8125 36.8415 12.387C36.8415 12.9615 37.3072 13.427 37.8816 13.427H51.9997C51.7157 15.5642 50.7434 20.4975 47.5502 25.011C46.1399 23.0278 45.1711 20.9866 44.5108 19.175C44.3141 18.6353 43.717 18.3575 43.1774 18.5539C42.6377 18.7506 42.3598 19.3476 42.5565 19.8872C42.9074 20.85 43.339 21.8726 43.8668 22.9183C43.6079 22.8631 43.3397 22.8334 43.0645 22.8334H33.9179C33.3435 22.8334 32.8779 23.2989 32.8779 23.8735C32.8779 24.448 33.3435 24.9135 33.9179 24.9135H43.0645C44.0358 24.9135 44.8261 25.7036 44.8261 26.675V54.6913C44.8261 55.6627 44.0358 56.4529 43.0645 56.4529H15.8886C15.6128 56.4529 15.3482 56.5624 15.1532 56.7574L7.96351 63.9473V57.4929C7.96351 56.9184 7.49785 56.4529 6.92347 56.4529H3.84163C2.87037 56.4529 2.08008 55.6627 2.08008 54.6913V52.0628C2.08008 51.4883 1.61442 51.0228 1.04004 51.0228C0.46566 51.0228 0 51.4883 0 52.0628V54.6913C0 56.8096 1.72341 58.533 3.84163 58.533H5.88343V66.4581C5.88343 66.8787 6.13679 67.2581 6.52548 67.4189C6.65417 67.4723 6.78924 67.4981 6.92333 67.4981C7.19402 67.4981 7.45999 67.3924 7.65899 67.1936L16.3196 58.533H43.0645C45.1828 58.533 46.9062 56.8096 46.9062 54.6913V39.2015H54.6804L63.3409 47.862C63.5399 48.061 63.8058 48.1665 64.0765 48.1665C64.2105 48.1665 64.3457 48.1406 64.4744 48.0874C64.8631 47.9265 65.1164 47.5471 65.1164 47.1265V39.2015H67.1591C69.2771 39.2015 71.0003 37.4783 71.0003 35.3603V22.6791C71 22.1046 70.5343 21.639 69.96 21.639Z" fill="#8C2446"/>
<path d="M14.6924 53.3806L16.743 47.9968H30.1819L32.2126 53.3779C32.3699 53.7943 32.7655 54.051 33.186 54.051C33.3079 54.051 33.4321 54.0294 33.5529 53.9837C34.0903 53.781 34.3616 53.181 34.1588 52.6435L24.9853 28.3354C24.9817 28.326 24.978 28.3164 24.9741 28.307C24.7264 27.705 24.1462 27.3163 23.4955 27.3163C23.4949 27.3163 23.4943 27.3163 23.4938 27.3163C22.8424 27.317 22.2622 27.7068 22.0155 28.3097C22.0124 28.3176 22.0093 28.3254 22.0063 28.3334L12.7485 52.6406C12.5441 53.1772 12.8134 53.7781 13.3502 53.9826C13.8872 54.1872 14.4879 53.9176 14.6924 53.3806ZM23.4932 30.2732L29.3969 45.9169H17.5351L23.4932 30.2732Z" fill="#8C2446"/>
</g>
<defs>
<clipPath id="clip0">
<rect width="71" height="71" fill="white"/>
</clipPath>
</defs>
</svg>
