<svg width="71" height="64" viewBox="0 0 71 64" fill="none" xmlns="http://www.w3.org/2000/svg">
<g clip-path="url(#clip0)">
<path d="M22.6614 2.03638C20.3272 3.20002 18.4792 4.46062 18.4792 4.8485C18.4792 5.33335 17.1176 5.23638 15.3669 4.75153C11.1847 3.58789 5.25185 5.23638 2.33404 8.43638C-1.16733 12.2182 -0.972812 18.7152 2.9176 22.303C4.47376 23.7576 7.09979 25.2121 8.65596 25.503C11.1847 26.0849 11.5738 26.5697 12.2546 30.6424C12.9354 35.103 12.2546 50.5212 11.0875 59.1515L10.5039 63.6121L36.3751 63.7091C50.5751 63.7091 62.2464 63.7091 62.2464 63.6121C62.2464 63.6121 61.5655 61.0909 60.7875 58.1818C59.3286 52.8485 58.8423 34.9091 59.9121 29.3818C60.3012 27.2485 61.2738 26.1818 63.8025 25.3091C70.2217 22.9818 72.945 15.903 69.4436 10.7637C67.4984 8.14547 60.8847 4.94547 57.1888 4.8485C55.7299 4.8485 52.5203 3.78184 49.9916 2.42426C46.0039 0.290928 44.156 1.90735e-05 36.0834 1.90735e-05C28.5943 1.90735e-05 25.9683 0.387897 22.6614 2.03638ZM47.6573 3.39396C49.5053 4.36366 50.4779 5.33335 49.8943 5.52729C46.6847 6.59396 49.2135 7.56365 54.271 7.0788C60.6902 6.59396 65.1642 8.43638 68.471 12.897C70.319 15.4182 70.319 15.8061 69.0546 18.2303C67.0121 21.7212 61.6628 25.2121 58.1614 25.2121C56.508 25.2121 55.5354 25.6 55.9244 26.1818C56.3135 26.7637 56.897 26.9576 57.2861 26.7637C57.6751 26.4727 58.0642 32.194 57.9669 39.5637C57.8697 46.8364 58.2587 55.1758 58.745 58.0849L59.5231 63.3212L56.897 62.6424C53.3957 61.7697 16.534 61.7697 14.2971 62.6424C12.6436 63.2243 12.5464 62.8364 13.3244 56.1455C13.7135 52.1697 14.0053 43.8303 14.0053 37.5273C13.8108 27.2485 14.0053 26.0849 15.4642 26.7637C24.2176 30.4485 43.9614 31.1273 49.019 27.8303C51.4505 26.1818 52.5203 23.2727 50.5751 23.2727C50.0888 23.2727 49.6025 23.8546 49.6025 24.6303C49.6025 26.0849 45.7121 27.6364 39.3902 28.6061C34.6244 29.2849 23.0505 27.7333 17.3121 25.6C14.9779 24.8243 11.671 23.9515 9.82308 23.8546C6.41897 23.6606 0.972394 18.8121 0.972394 15.903C0.972394 10.3758 8.46143 4.94547 14.1025 6.40002C16.0477 6.88486 16.3395 7.36971 15.8532 9.79396C15.5614 11.5394 15.756 12.6061 16.4368 12.6061C17.0203 12.6061 17.5066 11.8303 17.5066 10.8606C17.6039 7.75759 21.2998 4.36366 26.9409 2.32729C31.9012 0.484867 43.1834 1.06668 47.6573 3.39396Z" fill="#8C2446"/>
</g>
<defs>
<clipPath id="clip0">
<rect width="71" height="64" fill="white"/>
</clipPath>
</defs>
</svg>
