<svg width="70" height="70" viewBox="0 0 70 70" fill="none" xmlns="http://www.w3.org/2000/svg">
<path d="M62.3438 59.0625H64.5312V67.8125H62.3438V59.0625Z" fill="#8C2446"/>
<path d="M22.1574 9.84375H9.57933C8.92688 9.84451 8.30137 10.104 7.84002 10.5654C7.37867 11.0267 7.11915 11.6522 7.11839 12.3047V20.5078C7.11915 21.1603 7.37867 21.7858 7.84002 22.2471C8.30137 22.7085 8.92688 22.968 9.57933 22.9688H22.1574C22.8099 22.968 23.4354 22.7085 23.8968 22.2471C24.3581 21.7858 24.6176 21.1603 24.6184 20.5078V12.3047C24.6176 11.6522 24.3581 11.0267 23.8968 10.5654C23.4354 10.104 22.8099 9.84451 22.1574 9.84375ZM9.57933 12.0312H13.1592L12.2842 14.2188H9.30589V12.3047C9.30589 12.2322 9.3347 12.1626 9.38598 12.1113C9.43726 12.0601 9.50681 12.0312 9.57933 12.0312ZM9.30589 20.5078V16.4062H11.4934C11.4934 16.5454 11.5199 16.6833 11.5716 16.8124L13.1592 20.7812H9.57933C9.50681 20.7812 9.43726 20.7524 9.38598 20.7012C9.3347 20.6499 9.30589 20.5803 9.30589 20.5078ZM15.5151 20.7812L13.7651 16.4062L15.5151 12.0312H16.2217L17.9717 16.4062L16.2217 20.7812H15.5151ZM22.4309 20.5078C22.4309 20.5803 22.4021 20.6499 22.3508 20.7012C22.2995 20.7524 22.23 20.7812 22.1574 20.7812H18.5776L19.4526 18.5938H22.4309V20.5078ZM22.4309 16.4062H20.2434C20.2434 16.2671 20.2169 16.1292 20.1652 16.0001L18.5776 12.0312H22.1574C22.23 12.0312 22.2995 12.0601 22.3508 12.1113C22.4021 12.1626 22.4309 12.2322 22.4309 12.3047V16.4062Z" fill="#8C2446"/>
<path d="M53.0559 13.6719C53.0548 12.6569 52.6511 11.6839 51.9334 10.9663C51.2157 10.2486 50.2427 9.84491 49.2278 9.84375H43.759C42.7438 9.84375 41.77 10.2471 41.0521 10.965C40.3342 11.6829 39.9309 12.6566 39.9309 13.6719C39.9309 14.6872 40.3342 15.6609 41.0521 16.3788C41.77 17.0967 42.7438 17.5 43.759 17.5H51.9622C52.2522 17.5 52.5304 17.3848 52.7356 17.1796C52.9407 16.9745 53.0559 16.6963 53.0559 16.4062V13.6719ZM50.8684 15.3125H43.759C43.3239 15.3125 42.9066 15.1396 42.5989 14.832C42.2913 14.5243 42.1184 14.107 42.1184 13.6719C42.1184 13.2368 42.2913 12.8195 42.5989 12.5118C42.9066 12.2041 43.3239 12.0312 43.759 12.0312H49.2278C49.6628 12.0317 50.0798 12.2047 50.3874 12.5123C50.6949 12.8199 50.8679 13.2369 50.8684 13.6719V15.3125Z" fill="#8C2446"/>
<path d="M7.11839 26.25H12.5871V28.4375H7.11839V26.25Z" fill="#8C2446"/>
<path d="M14.7746 26.25H26.8059V28.4375H14.7746V26.25Z" fill="#8C2446"/>
<path d="M7.11839 32.8125H10.3996V35H7.11839V32.8125Z" fill="#8C2446"/>
<path d="M12.5871 32.8125H15.8684V35H12.5871V32.8125Z" fill="#8C2446"/>
<path d="M18.0559 32.8125H21.3371V35H18.0559V32.8125Z" fill="#8C2446"/>
<path d="M23.5246 32.8125H26.8059V35H23.5246V32.8125Z" fill="#8C2446"/>
<path d="M46.4934 19.6875H53.0559V21.875H46.4934V19.6875Z" fill="#8C2446"/>
<path d="M39.9309 19.6875H44.3059V21.875H39.9309V19.6875Z" fill="#8C2446"/>
<path d="M67.7913 35.8792L63.856 16.2023C63.6805 15.3353 63.2111 14.5556 62.5269 13.9948C61.8428 13.4341 60.9861 13.1269 60.1016 13.125H59.0625V4.64844C59.0617 3.99599 58.8022 3.37048 58.3409 2.90913C57.8795 2.44778 57.254 2.18826 56.6016 2.1875H4.64844C3.99599 2.18826 3.37048 2.44778 2.90913 2.90913C2.44778 3.37048 2.18826 3.99599 2.1875 4.64844V7.65625H4.375V4.64844C4.375 4.57592 4.40381 4.50637 4.45509 4.45509C4.50637 4.40381 4.57592 4.375 4.64844 4.375H56.6016C56.6741 4.375 56.7436 4.40381 56.7949 4.45509C56.8462 4.50637 56.875 4.57592 56.875 4.64844V14.2188H56.9579V36.9141C56.9579 36.9866 56.929 37.0561 56.8778 37.1074C56.8265 37.1587 56.7569 37.1875 56.6844 37.1875H55.2132L51.1063 32.054C51.8668 31.59 52.495 30.9382 52.9307 30.1611C53.3663 29.3841 53.5947 28.508 53.5938 27.6172V24.0625C53.5938 23.7724 53.4785 23.4942 53.2734 23.2891C53.0683 23.084 52.7901 22.9688 52.5 22.9688H40.1953C38.8179 22.9703 37.4974 23.5182 36.5234 24.4921C35.5494 25.4661 35.0016 26.7867 35 28.1641V31.7188C35 32.0088 35.1152 32.287 35.3204 32.4921C35.5255 32.6973 35.8037 32.8125 36.0938 32.8125H40.3536C40.0137 34.2521 40.0224 35.752 40.3789 37.1875H4.64844C4.57592 37.1875 4.50637 37.1587 4.45509 37.1074C4.40381 37.0561 4.375 36.9866 4.375 36.9141V9.84375H2.1875V36.9141C2.18826 37.5665 2.44778 38.192 2.90913 38.6534C3.37048 39.1147 3.99599 39.3742 4.64844 39.375H6.67324L11.0228 54.8267C11.1683 55.3423 11.4779 55.7965 11.9047 56.1205C12.3315 56.4444 12.8522 56.6205 13.388 56.6219C13.6146 56.6217 13.84 56.5903 14.058 56.5287L33.2158 51.1358L31.8295 53.9704C31.7021 54.231 31.6834 54.5314 31.7775 54.8058C31.8716 55.0801 32.0709 55.3058 32.3314 55.4333L32.8226 55.6735C34.6294 56.5592 36.6756 56.8319 38.6513 56.4504L37.7245 58.3451C37.5971 58.6057 37.5785 58.9062 37.6726 59.1805C37.7668 59.4549 37.966 59.6806 38.2266 59.808L38.7178 60.0481C40.2064 60.7816 41.8647 61.1019 43.5193 60.9753C45.174 60.8487 46.7643 60.2801 48.124 59.3287V67.8125H50.3115V50.3125C50.3116 50.1104 50.2556 49.9122 50.1497 49.7401L43.4368 38.8109C43.433 38.8045 43.4288 38.798 43.4249 38.7918C42.4362 37.2567 42.0766 35.3999 42.4208 33.6068C42.765 31.8137 43.7865 30.222 45.2733 29.1621L45.7304 28.8356L53.8334 38.9648C53.9359 39.0929 54.0659 39.1962 54.2137 39.2672C54.3616 39.3382 54.5235 39.375 54.6875 39.375H56.6844C57.3369 39.3742 57.9624 39.1147 58.4237 38.6534C58.8851 38.192 59.1446 37.5665 59.1454 36.9141V15.3125H60.1024C60.4814 15.3133 60.8485 15.4451 61.1417 15.6853C61.4348 15.9256 61.636 16.2598 61.7112 16.6313L65.602 36.0864L62.3684 51.1774C62.3521 51.2526 62.3439 51.3293 62.3438 51.4062V56.875H64.5312V51.522L67.7882 36.3229C67.8195 36.1768 67.8206 36.0258 67.7913 35.8792ZM34.2848 53.9304L36.0404 50.3409L44.5122 47.956L43.2943 50.4461C42.5058 52.0532 41.1406 53.3043 39.4709 53.9501C37.8012 54.5958 35.9496 54.5888 34.2848 53.9304ZM48.125 56.4144C47.1585 57.5121 45.8756 58.2833 44.4528 58.622C43.0299 58.9607 41.5371 58.8501 40.1797 58.3056L41.6391 55.3221C43.2042 54.4011 44.4634 53.0395 45.2594 51.4072L46.7441 48.3727L48.125 50.6216V56.4144ZM45.0063 45.5444L13.4653 54.4231C13.3955 54.4427 13.3208 54.4338 13.2576 54.3983C13.1944 54.3629 13.1478 54.3038 13.1281 54.234L8.94592 39.375H41.2303C41.3386 39.5743 41.4549 39.7711 41.5792 39.9652L45.0063 45.5444ZM45.3019 26.4537L44.0018 27.3822C42.8166 28.226 41.8466 29.3369 41.1701 30.625H37.1875V28.1641C37.1884 27.3666 37.5056 26.6021 38.0695 26.0382C38.6333 25.4743 39.3979 25.1572 40.1953 25.1562H51.4062V27.6172C51.407 28.1806 51.2493 28.733 50.9511 29.2111C50.653 29.6892 50.2264 30.0738 49.7201 30.3211L46.7916 26.6602C46.6168 26.4418 46.3649 26.2987 46.0878 26.2603C45.8108 26.2219 45.5295 26.2911 45.3019 26.4537Z" fill="#8C2446"/>
</svg>
