<svg width="70" height="70" viewBox="0 0 70 70" fill="none" xmlns="http://www.w3.org/2000/svg">
<path d="M61.0597 34.5855L45.9375 25.6266V3.28125C45.9375 2.99117 45.8223 2.71297 45.6171 2.50785C45.412 2.30273 45.1338 2.1875 44.8437 2.1875H18.5937C18.3037 2.1875 18.0255 2.30273 17.8204 2.50785C17.6152 2.71297 17.5 2.99117 17.5 3.28125V57.9688C17.5 58.2588 17.6152 58.537 17.8204 58.7421C18.0255 58.9473 18.3037 59.0625 18.5937 59.0625H36.1583C36.4296 61.4673 37.5762 63.6882 39.3797 65.3019C41.1832 66.9156 43.5175 67.8092 45.9375 67.8125H65.625C66.2052 67.8125 66.7616 67.582 67.1718 67.1718C67.582 66.7616 67.8125 66.2052 67.8125 65.625V46.6867C67.82 44.2597 67.2027 41.8716 66.02 39.7522C64.8374 37.6328 63.1291 35.8535 61.0597 34.5855ZM36.1966 39.3827C38.1686 38.3725 39.7419 36.7261 40.6616 34.7102C41.5812 32.6943 41.7934 30.4269 41.2636 28.2754C40.7339 26.1239 39.4933 24.2143 37.7428 22.8558C35.9923 21.4973 33.8345 20.7696 31.6188 20.7905C29.4032 20.8115 27.2594 21.5798 25.5349 22.9711C23.8104 24.3624 22.6061 26.2951 22.1171 28.4562C21.6281 30.6173 21.883 32.8803 22.8405 34.8784C23.7981 36.8766 25.4022 38.493 27.393 39.4658C26.6148 40.5017 26.2328 41.7817 26.3158 43.0747C26.3988 44.3676 26.9415 45.5882 27.8458 46.5161L28.5337 47.3222C27.9481 47.9433 27.5573 48.7223 27.4096 49.5631C27.2619 50.4038 27.3637 51.2694 27.7025 52.0529C28.0413 52.8365 28.6023 53.5035 29.316 53.9718C30.0298 54.44 30.8651 54.6888 31.7187 54.6875C32.5905 54.6828 33.4407 54.4161 34.1589 53.9219L36.0937 56.1838V56.875H25.0578C24.8286 55.5341 24.189 54.2974 23.2271 53.3354C22.2651 52.3735 21.0284 51.7339 19.6875 51.5047V9.74531C21.0284 9.51614 22.2651 8.87647 23.2271 7.91456C24.189 6.95264 24.8286 5.71591 25.0578 4.375H38.3797C38.6089 5.71591 39.2485 6.95264 40.2104 7.91456C41.1724 8.87647 42.4091 9.51614 43.75 9.74531V46.7392L36.1966 39.3827ZM29.2852 37.8645C27.565 37.2888 26.1051 36.121 25.1656 34.5693C24.2262 33.0175 23.8682 31.1827 24.1555 29.3916C24.4428 27.6005 25.3566 25.9696 26.7343 24.7895C28.1119 23.6094 29.8638 22.9568 31.6777 22.948C33.4917 22.9391 35.2498 23.5746 36.6389 24.7412C38.028 25.9078 38.9578 27.5297 39.2625 29.3179C39.5673 31.106 39.2272 32.9443 38.303 34.5052C37.3787 36.066 35.9303 37.248 34.2158 37.8405C33.4539 37.4434 32.6066 37.2381 31.7475 37.2423C30.8883 37.2465 30.0432 37.46 29.2852 37.8645ZM29.9764 49.0131L32.7316 52.243C32.2945 52.4787 31.7898 52.5575 31.3017 52.4662C30.8135 52.3748 30.3714 52.1189 30.0492 51.7411C29.7269 51.3633 29.5438 50.8864 29.5306 50.39C29.5174 49.8935 29.6747 49.4076 29.9764 49.0131ZM43.75 7.50094C42.9983 7.30439 42.3125 6.91122 41.7632 6.36183C41.2138 5.81245 40.8206 5.12667 40.6241 4.375H43.75V7.50094ZM22.8134 4.375C22.6169 5.12667 22.2237 5.81245 21.6743 6.36183C21.1249 6.91122 20.4392 7.30439 19.6875 7.50094V4.375H22.8134ZM19.6875 53.7491C20.4392 53.9456 21.1249 54.3388 21.6743 54.8882C22.2237 55.4375 22.6169 56.1233 22.8134 56.875H19.6875V53.7491ZM65.625 65.625H45.9375C43.9076 65.6227 41.9616 64.8153 40.5263 63.38C39.0909 61.9447 38.2836 59.9986 38.2812 57.9688V55.7812C38.2813 55.5211 38.1886 55.2694 38.0198 55.0714L29.4514 45.033C28.8371 44.4163 28.4921 43.5814 28.4921 42.7109C28.4921 41.8405 28.8371 41.0055 29.4514 40.3889C30.0784 39.7894 30.9131 39.4557 31.7806 39.4578C32.6481 39.4598 33.4811 39.7974 34.1053 40.3998L48.4531 54.378L49.9844 52.8095L45.9375 48.872V28.1695L59.9266 36.4569C61.6738 37.5303 63.1157 39.0351 64.1137 40.8265C65.1116 42.618 65.632 44.6361 65.625 46.6867V65.625Z" fill="#8C2446"/>
<path d="M57.797 37.8777L56.6453 39.737C58.3928 40.8106 59.8347 42.3155 60.8327 44.1072C61.8306 45.8989 62.351 47.9171 62.3438 49.968H64.5313C64.5396 47.5444 63.9245 45.1595 62.7452 43.0422C61.5659 40.9249 59.8619 39.1464 57.797 37.8777Z" fill="#8C2446"/>
<path d="M31.7188 6.5625C30.8535 6.5625 30.0076 6.81909 29.2881 7.29982C28.5687 7.78055 28.0079 8.46383 27.6768 9.26326C27.3456 10.0627 27.259 10.9424 27.4278 11.791C27.5966 12.6397 28.0133 13.4192 28.6252 14.0311C29.237 14.6429 30.0166 15.0596 30.8652 15.2284C31.7139 15.3972 32.5936 15.3106 33.393 14.9795C34.1924 14.6483 34.8757 14.0876 35.3564 13.3681C35.8372 12.6487 36.0938 11.8028 36.0938 10.9375C36.0938 9.77718 35.6328 8.66438 34.8123 7.84391C33.9919 7.02344 32.8791 6.5625 31.7188 6.5625ZM31.7188 13.125C31.2861 13.125 30.8632 12.9967 30.5034 12.7563C30.1437 12.516 29.8633 12.1743 29.6978 11.7746C29.5322 11.3749 29.4889 10.9351 29.5733 10.5107C29.6577 10.0864 29.866 9.69663 30.172 9.3907C30.4779 9.08478 30.8677 8.87644 31.292 8.79203C31.7163 8.70763 32.1562 8.75095 32.5559 8.91651C32.9556 9.08208 33.2972 9.36246 33.5376 9.72219C33.778 10.0819 33.9063 10.5049 33.9063 10.9375C33.9063 11.5177 33.6758 12.0741 33.2655 12.4843C32.8553 12.8945 32.2989 13.125 31.7188 13.125Z" fill="#8C2446"/>
<path d="M32.8125 31.7188V29.5312H35V33.9062H37.1875V31.7188H38.2812V29.5312H37.1875C37.1875 28.9511 36.957 28.3947 36.5468 27.9845C36.1366 27.5742 35.5802 27.3438 35 27.3438H32.8125C32.2323 27.3438 31.6759 27.5742 31.2657 27.9845C30.8555 28.3947 30.625 28.9511 30.625 29.5312V31.7188H28.4375V27.3438H26.25V29.5312H25.1562V31.7188H26.25C26.25 32.2989 26.4805 32.8553 26.8907 33.2655C27.3009 33.6758 27.8573 33.9062 28.4375 33.9062H30.625C31.2052 33.9062 31.7616 33.6758 32.1718 33.2655C32.582 32.8553 32.8125 32.2989 32.8125 31.7188Z" fill="#8C2446"/>
<path d="M52.5 20.7812H54.6875V22.9688H52.5V20.7812Z" fill="#8C2446"/>
<path d="M52.5 9.84375H54.6875V18.5938H52.5V9.84375Z" fill="#8C2446"/>
<path d="M48.125 13.125H50.3125V15.3125H48.125V13.125Z" fill="#8C2446"/>
<path d="M48.125 2.1875H50.3125V10.9375H48.125V2.1875Z" fill="#8C2446"/>
<path d="M8.75 38.2812H10.9375V40.4688H8.75V38.2812Z" fill="#8C2446"/>
<path d="M8.75 42.6562H10.9375V51.4062H8.75V42.6562Z" fill="#8C2446"/>
<path d="M13.125 45.9375H15.3125V48.125H13.125V45.9375Z" fill="#8C2446"/>
<path d="M13.125 50.3125H15.3125V59.0625H13.125V50.3125Z" fill="#8C2446"/>
</svg>
