<svg width="24" height="24" viewBox="0 0 24 24" fill="none" xmlns="http://www.w3.org/2000/svg">
<mask id="mask0" mask-type="alpha" maskUnits="userSpaceOnUse" x="0" y="0" width="24" height="24">
<g clip-path="url(#clip0)">
<path d="M23.3816 17.7088L20.3988 14.7253C19.603 13.9295 18.2125 13.9281 17.4154 14.7253L16.918 15.2227L22.8844 21.1888L23.3816 20.6916C24.2075 19.8657 24.2048 18.5305 23.3816 17.7088Z" fill="black"/>
<path d="M15.8962 16.1892C15.2685 16.6754 14.3731 16.656 13.7996 16.0812L7.90194 10.1795C7.32711 9.60466 7.30775 8.7086 7.79399 8.08249L1.8413 2.13013C-0.719527 5.11512 -0.619402 9.61291 2.20692 12.4392L11.5399 21.7762C14.252 24.4883 18.6946 24.8481 21.8491 22.1417L15.8962 16.1892Z" fill="black"/>
<path d="M9.25837 3.58059L6.27557 0.597147C5.47973 -0.198695 4.08928 -0.200054 3.29213 0.597147L2.79474 1.09454L8.76116 7.06064L9.25837 6.56339C10.0842 5.73754 10.0815 4.40236 9.25837 3.58059Z" fill="black"/>
</g>
</mask>
<g mask="url(#mask0)">
<rect x="-27.8537" y="-15.3462" width="79.1538" height="54.9231" fill="#8C2446"/>
</g>
<defs>
<clipPath id="clip0">
<rect width="24" height="24" fill="white"/>
</clipPath>
</defs>
</svg>
