<svg width="29" height="28" viewBox="0 0 29 28" fill="none" xmlns="http://www.w3.org/2000/svg">
<g clip-path="url(#clip0)">
<path d="M21.6784 0.0058132L18.0553 0C13.985 0 11.3545 2.69878 11.3545 6.87586V10.0461H7.71172C7.39694 10.0461 7.14203 10.3013 7.14203 10.6161V15.2094C7.14203 15.5242 7.39723 15.7791 7.71172 15.7791H11.3545V27.3694C11.3545 27.6842 11.6094 27.9391 11.9242 27.9391H16.677C16.9918 27.9391 17.2467 27.6839 17.2467 27.3694V15.7791H21.506C21.8208 15.7791 22.0757 15.5242 22.0757 15.2094L22.0774 10.6161C22.0774 10.4649 22.0173 10.3202 21.9106 10.2132C21.8039 10.1063 21.6586 10.0461 21.5075 10.0461H17.2467V7.35864C17.2467 6.06695 17.5545 5.41122 19.2371 5.41122L21.6778 5.41035C21.9923 5.41035 22.2472 5.15515 22.2472 4.84065V0.575507C22.2472 0.261304 21.9926 0.00639452 21.6784 0.0058132Z" fill="#8C2446"/>
</g>
<defs>
<clipPath id="clip0">
<rect width="27.9391" height="27.9391" fill="white" transform="translate(0.72522)"/>
</clipPath>
</defs>
</svg>
