<svg width="71" height="71" viewBox="0 0 71 71" fill="none" xmlns="http://www.w3.org/2000/svg">
<path d="M19.8804 47.1322C19.05 46.1382 17.7418 45.6604 16.4667 45.8841C15.1921 46.1089 14.1261 47.0049 13.6846 48.2231C13.4891 48.7632 13.768 49.3596 14.3086 49.5551C14.4251 49.5974 14.5448 49.6174 14.6623 49.6174C15.0881 49.6174 15.4873 49.3547 15.6401 48.9311C15.8286 48.4111 16.2836 48.0287 16.8275 47.9328C17.3724 47.8369 17.9298 48.0411 18.2846 48.4658C18.6529 48.9067 19.3089 48.9652 19.7493 48.5974C20.1902 48.2291 20.2487 47.5731 19.8804 47.1322Z" fill="#8C2446"/>
<path d="M26.3432 52.0333C26.5491 52.0333 26.7566 52.0149 26.9608 51.9792C27.8935 51.815 28.7061 51.2972 29.2494 50.5215C29.7932 49.7463 30.0018 48.8054 29.8377 47.8726L29.5116 46.0217C29.4639 45.7503 29.3101 45.5087 29.0842 45.3506C28.8583 45.1924 28.5788 45.1301 28.3069 45.1778L23.3721 46.0466C22.8066 46.1463 22.4285 46.6858 22.5281 47.2513L22.8542 49.1023C23.1533 50.8005 24.6207 52.0333 26.3432 52.0333ZM27.6438 47.4068L27.789 48.2334C27.8567 48.6191 27.7706 49.0075 27.5458 49.3282C27.3215 49.6488 26.9851 49.8628 26.6 49.9305C26.5144 49.9457 26.4283 49.9533 26.3427 49.9533C25.632 49.9533 25.0259 49.4435 24.9024 48.7415L24.7572 47.9149L27.6438 47.4068Z" fill="#8C2446"/>
<path d="M35.9159 43.3366C35.8163 42.7705 35.2768 42.393 34.7112 42.4926C34.1452 42.5923 33.7676 43.1313 33.8673 43.6974L34.1538 45.3262C34.2427 45.8311 34.6814 46.1859 35.1771 46.1859C35.2367 46.1859 35.2973 46.181 35.3586 46.1702C35.9241 46.0705 36.3022 45.5315 36.2025 44.9654L35.9159 43.3366Z" fill="#8C2446"/>
<path d="M33.8819 48.5492C33.9707 49.0541 34.4095 49.4089 34.9046 49.4089C34.9647 49.4089 35.0249 49.404 35.0861 49.3931L36.7155 49.1066C37.281 49.0069 37.6591 48.4674 37.5594 47.9019C37.4597 47.3358 36.9208 46.9588 36.3547 47.0579L34.7253 47.3445C34.1598 47.4442 33.7822 47.9837 33.8819 48.5492Z" fill="#8C2446"/>
<path d="M18.0799 50.2751L16.4505 50.5622C15.8849 50.6618 15.5068 51.2008 15.6065 51.7669C15.6954 52.2717 16.1341 52.6265 16.6298 52.6265C16.6893 52.6265 16.75 52.6211 16.8112 52.6108L18.4401 52.3237C19.0061 52.2241 19.3837 51.6851 19.284 51.119C19.1844 50.5535 18.6454 50.176 18.0799 50.2751Z" fill="#8C2446"/>
<path d="M69.3515 17.5686C68.0601 15.6201 66.1556 14.2161 63.9384 13.5552C62.9905 8.48826 59.0248 4.27122 53.661 3.27018C48.2978 2.26969 43.0776 4.77228 40.3664 9.1567C38.0599 8.97307 35.7773 9.59601 33.87 10.9475C31.7612 12.442 30.3388 14.6651 29.8648 17.2062C29.38 19.8052 29.9357 22.4372 31.4308 24.6181C31.6702 24.9675 31.9313 25.2968 32.2087 25.6088C29.7976 26.3731 27.7251 27.9863 26.3996 30.1779C25.8011 31.1671 24.8975 31.92 23.8391 32.336L22.3852 24.0764C22.2855 23.5109 21.746 23.1333 21.1805 23.2324C20.615 23.3321 20.2369 23.8711 20.3365 24.4371L21.7904 32.6968C20.654 32.667 19.5473 32.2683 18.647 31.543C16.2885 29.6422 13.2253 28.853 10.2422 29.3784L9.72654 29.4694C4.89416 30.3204 1.09207 34.1409 0.264912 38.9771C-0.790291 45.1464 1.34612 51.3411 5.97861 55.5489L7.65946 57.0754C7.8588 57.2563 8.10852 57.3457 8.35824 57.3457C8.641 57.3457 8.92322 57.2309 9.12852 57.005C9.51474 56.5798 9.48278 55.9222 9.05756 55.5359L7.37725 54.0095C3.27289 50.2816 1.38024 44.7932 2.31519 39.3281C2.99447 35.3554 6.11783 32.2169 10.0873 31.5181L10.603 31.4271C12.9945 31.0062 15.4511 31.6383 17.3416 33.1621C18.9839 34.4854 21.1171 35.0342 23.1939 34.6691C25.2708 34.3034 27.0881 33.0592 28.1796 31.2543C29.4363 29.1764 31.5288 27.7431 33.9209 27.3222L34.1371 27.2843C35.2259 28.0031 36.4571 28.5052 37.7788 28.7517C38.3823 28.8644 38.9916 28.9201 39.6 28.9201C40.2895 28.9201 40.9769 28.8465 41.6508 28.7035C41.6714 31.1075 41.4607 33.512 41.0192 35.8759L39.9651 41.5257C39.8708 42.0311 39.9791 42.5436 40.27 42.9677C40.5604 43.3924 40.9997 43.6779 41.5051 43.7727L45.838 44.5809C45.5395 45.5694 45.1468 46.5293 44.6642 47.4448L36.7122 62.5383C36.4528 63.0302 35.9718 63.3812 35.4246 63.4771L32.9351 63.9158C32.3842 64.0123 31.81 63.8449 31.3978 63.4668C30.4991 62.6418 29.2944 62.2902 28.0935 62.502C26.892 62.7133 25.8801 63.4554 25.3173 64.5372C25.059 65.0333 24.5763 65.3871 24.0254 65.484L21.5364 65.9222C20.9893 66.0187 20.4167 65.8529 20.0056 65.4797L11.9431 58.1566C11.5179 57.7704 10.8603 57.8018 10.4741 58.227C10.0878 58.6523 10.1198 59.3099 10.545 59.6961L18.6075 67.0192C19.3258 67.6714 20.2721 68.0289 21.2325 68.0289C21.454 68.0289 21.6767 68.0094 21.8971 67.9709L24.3862 67.5327C25.5703 67.3241 26.6082 66.5636 27.1629 65.497C27.4245 64.9938 27.8952 64.6487 28.4542 64.5502C29.0133 64.4516 29.5734 64.6157 29.9915 64.9992C30.8772 65.8117 32.1128 66.172 33.2964 65.964L35.7854 65.5257C36.9609 65.3188 37.9955 64.5648 38.5523 63.5079L46.5048 48.4144C47.0844 47.3142 47.5481 46.1572 47.8921 44.9644L50.3914 45.4308C50.5106 45.453 50.6303 45.4638 50.7489 45.4638C51.1335 45.4638 51.5095 45.3479 51.8339 45.1258C52.2586 44.8349 52.5441 44.3961 52.6383 43.8908L53.6925 38.241C54.1334 35.8776 54.8045 33.5586 55.6902 31.3242C56.7763 32.0321 57.9972 32.5245 59.2848 32.765C59.8958 32.8788 60.5042 32.934 61.1049 32.934C65.7753 32.9335 69.943 29.6048 70.8298 24.851C71.3043 22.3094 70.7789 19.7234 69.3515 17.5686ZM38.1602 26.7068C36.1072 26.3238 34.3267 25.1646 33.1463 23.4421C31.9654 21.7195 31.5261 19.6405 31.9091 17.5881C32.5981 13.8981 35.7264 11.3094 39.341 11.2064C39.0496 11.9502 38.8226 12.7318 38.6704 13.546C37.9419 17.4499 39.0702 21.278 41.4282 24.1176L41.5744 26.586C40.465 26.8764 39.2988 26.9197 38.1602 26.7068ZM51.6476 37.8596L50.6216 43.3577L42.0381 41.756L43.064 36.2578C43.6149 33.3046 43.8267 30.2912 43.6951 27.2913C43.6946 27.2848 43.6946 27.2778 43.694 27.2713C43.6854 27.0806 43.6756 26.8894 43.6648 26.6987L43.6361 26.2139C44.8949 27.1537 46.3429 27.8731 47.9316 28.3043L46.4404 36.2947C46.3353 36.8591 46.7074 37.4024 47.2724 37.5081C47.3369 37.52 47.4008 37.5254 47.4642 37.5254C47.9549 37.5254 48.3921 37.176 48.4852 36.676L49.9765 28.684C50.4304 28.7316 50.8833 28.7582 51.3329 28.7582C52.4921 28.7582 53.6334 28.6006 54.7309 28.2983L54.5353 28.7273C53.2066 31.64 52.2348 34.7124 51.6476 37.8596ZM68.7854 24.4696C68.0845 28.2246 64.7932 30.854 61.1038 30.8534C60.6298 30.8534 60.1488 30.8101 59.6662 30.7202C58.5275 30.5078 57.4555 30.0469 56.5255 29.3762L57.5417 27.1488C59.0589 26.3049 60.4169 25.1451 61.5187 23.7053C61.8676 23.2492 61.7809 22.5965 61.3243 22.2476C60.8682 21.8988 60.2154 21.9855 59.8666 22.4416C58.9018 23.7026 57.702 24.7069 56.3613 25.4209C56.2936 25.4479 56.2292 25.4821 56.1685 25.5227C54.0998 26.5709 51.7099 26.9365 49.3281 26.4918C43.4893 25.4019 39.6254 19.7656 40.7153 13.9273C41.8052 8.08849 47.4414 4.22464 53.2797 5.31505C59.118 6.40439 62.9818 12.0406 61.8925 17.8789C61.7939 18.4055 61.6563 18.9271 61.483 19.4292C61.2961 19.972 61.5843 20.5641 62.1276 20.7515C62.6704 20.9389 63.2624 20.6502 63.4498 20.1074C63.6562 19.5083 63.8198 18.887 63.9368 18.2608C64.089 17.4467 64.1589 16.6358 64.1551 15.8368C67.4892 17.237 69.4739 20.7797 68.7854 24.4696Z" fill="#8C2446"/>
</svg>
