<svg width="28" height="28" viewBox="0 0 28 28" fill="none" xmlns="http://www.w3.org/2000/svg">
<g clip-path="url(#clip0)">
<path d="M20.1306 0.661133H8.20807C4.15923 0.661133 0.865234 3.95529 0.865234 8.00413V19.9267C0.865234 23.9757 4.15923 27.2697 8.20807 27.2697H20.1306C24.1798 27.2697 27.4738 23.9755 27.4738 19.9267V8.00413C27.4739 3.95529 24.1798 0.661133 20.1306 0.661133ZM25.1131 19.9267C25.1131 22.6739 22.878 24.9088 20.1308 24.9088H8.20807C5.461 24.909 3.22607 22.6739 3.22607 19.9267V8.00413C3.22607 5.25706 5.461 3.02197 8.20807 3.02197H20.1306C22.8778 3.02197 25.1129 5.25706 25.1129 8.00413V19.9267H25.1131Z" fill="#8C2446"/>
<path d="M14.1691 7.10938C10.3885 7.10938 7.31277 10.1851 7.31277 13.9657C7.31277 17.7462 10.3885 20.8218 14.1691 20.8218C17.9498 20.8218 21.0255 17.7462 21.0255 13.9657C21.0255 10.1851 17.9498 7.10938 14.1691 7.10938ZM14.1691 18.4608C11.6904 18.4608 9.67361 16.4443 9.67361 13.9656C9.67361 11.4867 11.6902 9.47006 14.1691 9.47006C16.648 9.47006 18.6646 11.4867 18.6646 13.9656C18.6646 16.4443 16.6478 18.4608 14.1691 18.4608Z" fill="#8C2446"/>
<path d="M21.3136 5.10767C20.8587 5.10767 20.4119 5.29181 20.0906 5.61446C19.7678 5.93553 19.5823 6.38252 19.5823 6.83895C19.5823 7.29396 19.768 7.74079 20.0906 8.06343C20.4117 8.38451 20.8587 8.57023 21.3136 8.57023C21.77 8.57023 22.2154 8.38451 22.538 8.06343C22.8607 7.74079 23.0448 7.2938 23.0448 6.83895C23.0448 6.38252 22.8607 5.93553 22.538 5.61446C22.217 5.29181 21.77 5.10767 21.3136 5.10767Z" fill="#8C2446"/>
</g>
<defs>
<clipPath id="clip0">
<rect width="26.6087" height="26.6087" fill="white" transform="translate(0.865234 0.661133)"/>
</clipPath>
</defs>
</svg>
