<svg width="71" height="70" viewBox="0 0 71 70" fill="none" xmlns="http://www.w3.org/2000/svg">
<g clip-path="url(#clip0)">
<path d="M65.8437 31.6317L64.0338 24.3808C64.5286 24.2755 64.8999 23.8358 64.8999 23.309V22.14C64.8999 19.6016 62.838 17.5366 60.3038 17.5366H52.06V15.1252C52.06 13.8761 51.0455 12.86 49.7984 12.86H7.77624C6.52912 12.86 5.51461 13.8761 5.51461 15.1252V35C5.51461 35.6052 6.00453 36.0961 6.60898 36.0961C7.21329 36.0961 7.70334 35.6054 7.70334 35V15.1252C7.70334 15.0849 7.73597 15.0522 7.77624 15.0522H49.7982C49.8385 15.0522 49.8711 15.0849 49.8711 15.1252V35.0003C49.8711 35.6055 50.361 36.0963 50.9655 36.0963C51.5698 36.0963 52.0598 35.6057 52.0598 35.0003V33.7578H64.969C64.9701 33.7578 64.9709 33.758 64.9719 33.758C64.973 33.758 64.9739 33.7579 64.9749 33.7579C66.5634 33.759 67.9122 34.8033 68.3755 36.2422H64.9727C64.3684 36.2422 63.8783 36.7329 63.8783 37.3383V39.6765C63.8783 41.5702 65.4165 43.1107 67.3072 43.1107H68.5475V47.9332H65.6861C64.7461 45.2148 62.166 43.2567 59.1363 43.2567C56.1065 43.2567 53.5263 45.2148 52.5865 47.9332H52.0596V39.6763C52.0596 39.0711 51.5696 38.5803 50.9652 38.5803C50.3609 38.5803 49.8708 39.0709 49.8708 39.6763V47.9329H27.1662C26.2262 45.2145 23.6461 43.2564 20.6164 43.2564C17.5866 43.2564 15.0064 45.2145 14.0665 47.9329H7.77624C7.73597 47.9329 7.70334 47.9002 7.70334 47.8599V45.4486H12.4454C13.0497 45.4486 13.5398 44.9579 13.5398 44.3525C13.5398 43.7471 13.0499 43.2564 12.4454 43.2564H1.93995C1.33564 43.2564 0.845581 43.7471 0.845581 44.3525C0.845581 44.9579 1.3355 45.4486 1.93995 45.4486H5.51475V47.8599C5.51475 49.109 6.52926 50.1251 7.77637 50.1251H13.6876C13.6873 50.1494 13.6857 50.1736 13.6857 50.1981C13.6857 54.0256 16.7949 57.1395 20.6164 57.1395C24.4378 57.1395 27.547 54.0256 27.547 50.1981C27.547 50.1735 27.5454 50.1494 27.5451 50.1251H52.2075C52.2073 50.1494 52.2056 50.1736 52.2056 50.1981C52.2056 54.0256 55.3148 57.1395 59.1363 57.1395C62.9577 57.1395 66.0669 54.0256 66.0669 50.1981C66.0669 50.1735 66.0653 50.1494 66.065 50.1251H69.6419C70.2462 50.1251 70.7362 49.6344 70.7362 49.029V37.338C70.7364 34.4516 68.61 32.0534 65.8437 31.6317ZM52.06 19.7286H60.3038C61.6313 19.7286 62.7114 20.8104 62.7114 22.14V22.213H52.06V19.7286ZM52.06 31.5658V24.405H61.7839L63.5713 31.5658H52.06ZM20.6164 54.9478C18.0016 54.9478 15.8743 52.8173 15.8743 50.1983C15.8743 47.5794 18.0016 45.4489 20.6164 45.4489C23.2311 45.4489 25.3584 47.5794 25.3584 50.1983C25.3584 52.8173 23.2311 54.9478 20.6164 54.9478ZM59.1366 54.9478C56.5218 54.9478 54.3945 52.8173 54.3945 50.1983C54.3945 47.5794 56.5218 45.4489 59.1366 45.4489C61.7513 45.4489 63.8786 47.5794 63.8786 50.1983C63.8786 52.8173 61.7513 54.9478 59.1366 54.9478ZM68.5478 40.9186H67.3075C66.6236 40.9186 66.0672 40.3613 66.0672 39.6763V38.4341H68.5476V40.9186H68.5478Z" fill="#8C2446"/>
<path d="M20.6163 47.9332C19.3692 47.9332 18.3547 48.9493 18.3547 50.1984C18.3547 51.4474 19.3692 52.4635 20.6163 52.4635C21.8634 52.4635 22.8779 51.4474 22.8779 50.1984C22.8779 48.9493 21.8634 47.9332 20.6163 47.9332Z" fill="#8C2446"/>
<path d="M59.1367 47.9332C57.8895 47.9332 56.875 48.9493 56.875 50.1984C56.875 51.4474 57.8895 52.4635 59.1367 52.4635C60.3838 52.4635 61.3983 51.4474 61.3983 50.1984C61.3983 48.9493 60.3838 47.9332 59.1367 47.9332Z" fill="#8C2446"/>
<path d="M46.2963 43.2568H29.9544C29.3501 43.2568 28.86 43.7475 28.86 44.3529C28.86 44.9583 29.35 45.449 29.9544 45.449H46.2963C46.9006 45.449 47.3906 44.9583 47.3906 44.3529C47.3906 43.7475 46.9007 43.2568 46.2963 43.2568Z" fill="#8C2446"/>
<path d="M18.2819 38.5804H4.27454C3.67023 38.5804 3.18018 39.0711 3.18018 39.6765C3.18018 40.2818 3.67009 40.7725 4.27454 40.7725H18.2819C18.8862 40.7725 19.3763 40.2818 19.3763 39.6765C19.3763 39.0711 18.8862 38.5804 18.2819 38.5804Z" fill="#8C2446"/>
<path d="M38.8993 23.7029C38.4721 23.275 37.779 23.275 37.3518 23.7031L27.62 33.4499L22.5574 28.3794C22.13 27.9513 21.4371 27.9513 21.0099 28.3794C20.5825 28.8075 20.5825 29.5013 21.0099 29.9294L26.8463 35.7749C27.0599 35.989 27.34 36.096 27.62 36.096C27.9 36.096 28.1802 35.989 28.3937 35.7749L38.8992 25.2531C39.3266 24.8248 39.3266 24.131 38.8993 23.7029Z" fill="#8C2446"/>
</g>
<defs>
<clipPath id="clip0">
<rect width="69.8908" height="70" fill="white" transform="translate(0.845581)"/>
</clipPath>
</defs>
</svg>
