<svg width="70" height="70" viewBox="0 0 70 70" fill="none" xmlns="http://www.w3.org/2000/svg">
<path d="M5.31451 20.3998H16.1287C16.695 20.3998 17.1541 19.9408 17.1541 19.3744C17.1541 18.808 16.695 18.349 16.1287 18.349H5.31451C4.74823 18.349 4.28912 18.808 4.28912 19.3744C4.28912 19.9408 4.74809 20.3998 5.31451 20.3998Z" fill="#8C2446"/>
<path d="M15.7579 25.3363H11.486C10.9197 25.3363 10.4606 25.7952 10.4606 26.3617C10.4606 26.9281 10.9197 27.3871 11.486 27.3871H15.7579C16.3242 27.3871 16.7833 26.9281 16.7833 26.3617C16.7833 25.7952 16.3242 25.3363 15.7579 25.3363Z" fill="#8C2446"/>
<path d="M1.02539 32.447H11.486C12.0523 32.447 12.5114 31.9881 12.5114 31.4216C12.5114 30.8552 12.0523 30.3963 11.486 30.3963H1.02539C0.459102 30.3963 0 30.8552 0 31.4216C0 31.9881 0.459102 32.447 1.02539 32.447Z" fill="#8C2446"/>
<path d="M17.1541 50.6254C17.1541 50.059 16.695 49.6 16.1287 49.6H5.31451C4.74823 49.6 4.28912 50.059 4.28912 50.6254C4.28912 51.1919 4.74823 51.6508 5.31451 51.6508H16.1287C16.695 51.6508 17.1541 51.1919 17.1541 50.6254Z" fill="#8C2446"/>
<path d="M15.7579 42.6129H11.486C10.9197 42.6129 10.4606 43.0719 10.4606 43.6383C10.4606 44.2047 10.9197 44.6637 11.486 44.6637H15.7579C16.3242 44.6637 16.7833 44.2047 16.7833 43.6383C16.7833 43.0719 16.3242 42.6129 15.7579 42.6129Z" fill="#8C2446"/>
<path d="M12.5114 38.5783C12.5114 38.0119 12.0523 37.5529 11.486 37.5529H1.02539C0.459102 37.5529 0 38.0119 0 38.5783C0 39.1447 0.459102 39.6037 1.02539 39.6037H11.486C12.0523 39.6037 12.5114 39.1447 12.5114 38.5783Z" fill="#8C2446"/>
<path d="M43.6856 22.6721C44.252 22.6721 44.711 22.2131 44.711 21.6467V20.0815C44.711 19.5151 44.252 19.0561 43.6856 19.0561C43.1192 19.0561 42.6602 19.5151 42.6602 20.0815V21.6467C42.6602 22.2131 43.1192 22.6721 43.6856 22.6721Z" fill="#8C2446"/>
<path d="M54.9596 23.7259C54.559 23.3256 53.9098 23.3256 53.5094 23.7259L52.4027 24.8326C52.0022 25.2332 52.0022 25.8824 52.4027 26.2828C52.8034 26.6833 53.4524 26.6831 53.8528 26.2828L54.9596 25.1761C55.3599 24.7756 55.3599 24.1265 54.9596 23.7259Z" fill="#8C2446"/>
<path d="M57.0389 33.9746C56.4725 33.9746 56.0135 34.4336 56.0135 35C56.0135 35.5664 56.4725 36.0254 57.0389 36.0254H58.6039C59.1704 36.0254 59.6293 35.5664 59.6293 35C59.6293 34.4336 59.1704 33.9746 58.6039 33.9746H57.0389Z" fill="#8C2446"/>
<path d="M53.8528 43.717C53.4523 43.3167 52.8031 43.3167 52.4027 43.717C52.0022 44.1176 52.0022 44.7668 52.4027 45.1672L53.5094 46.2739C53.9101 46.6744 54.5591 46.6743 54.9596 46.2739C55.36 45.8734 55.36 45.2242 54.9596 44.8238L53.8528 43.717Z" fill="#8C2446"/>
<path d="M42.6602 48.3533V49.9183C42.6602 50.4847 43.1192 50.9437 43.6856 50.9437C44.252 50.9437 44.711 50.4847 44.711 49.9183V48.3533C44.711 47.7869 44.252 47.3279 43.6856 47.3279C43.1192 47.3279 42.6602 47.787 42.6602 48.3533Z" fill="#8C2446"/>
<path d="M33.5183 43.717L32.4115 44.8238C32.0111 45.2244 32.0111 45.8735 32.4115 46.2739C32.8121 46.6744 33.4612 46.6743 33.8616 46.2739L34.9683 45.1672C35.3687 44.7666 35.3687 44.1175 34.9683 43.717C34.568 43.3167 33.9187 43.3167 33.5183 43.717Z" fill="#8C2446"/>
<path d="M28.7671 33.9746C28.2008 33.9746 27.7417 34.4336 27.7417 35C27.7417 35.5664 28.2008 36.0254 28.7671 36.0254H30.3323C30.8986 36.0254 31.3577 35.5664 31.3577 35C31.3577 34.4336 30.8986 33.9746 30.3323 33.9746H28.7671Z" fill="#8C2446"/>
<path d="M34.9684 24.8326L33.8617 23.7259C33.4612 23.3256 32.8119 23.3256 32.4116 23.7259C32.0112 24.1265 32.0112 24.7756 32.4116 25.1761L33.5184 26.2828C33.919 26.6833 34.5681 26.6831 34.9684 26.2828C35.3689 25.8824 35.3689 25.2332 34.9684 24.8326Z" fill="#8C2446"/>
<path d="M49.1995 35C49.1995 34.4336 48.7405 33.9746 48.1741 33.9746H44.711V26.3616C44.711 25.7951 44.252 25.3362 43.6856 25.3362C43.1192 25.3362 42.6602 25.7951 42.6602 26.3616V35C42.6602 35.5664 43.1192 36.0254 43.6856 36.0254H48.1741C48.7404 36.0254 49.1995 35.5664 49.1995 35Z" fill="#8C2446"/>
<path d="M63.1286 34.8307C63.694 34.7964 64.1244 34.3104 64.0901 33.7452C63.4378 22.985 54.475 14.5562 43.6855 14.5562C32.4127 14.5562 23.2416 23.7272 23.2416 35.0001C23.2416 46.2729 32.4127 55.444 43.6855 55.444C53.7847 55.444 62.4023 48.0445 63.9014 38.0592C63.9855 37.4992 63.5996 36.9771 63.0395 36.893C62.4809 36.8092 61.9574 37.1946 61.8733 37.7549C60.5266 46.7255 52.7807 53.3933 43.6855 53.3933C33.5435 53.3933 25.2924 45.1422 25.2924 35.0003C25.2924 24.8583 33.5435 16.6071 43.6855 16.6071C53.3926 16.6071 61.4562 24.1896 62.043 33.8696C62.0771 34.4345 62.5628 34.8635 63.1286 34.8307Z" fill="#8C2446"/>
<path d="M43.6855 8.68559C40.0787 8.68559 36.5449 9.43385 33.2924 10.8332H15.2005C14.6342 10.8332 14.1751 11.2921 14.1751 11.8586C14.1751 12.425 14.6342 12.884 15.2005 12.884H29.4347C27.5101 14.1226 25.7384 15.6167 24.1763 17.3415C23.7962 17.7611 23.8282 18.4096 24.2479 18.7898C24.6678 19.17 25.3159 19.1379 25.6963 18.7182C30.2903 13.6456 36.8472 10.7364 43.6855 10.7364C57.0645 10.7364 67.9492 21.621 67.9492 35C67.9492 48.3789 57.0646 59.2636 43.6855 59.2636C30.3065 59.2636 19.4219 48.379 19.4219 35C19.4219 30.3149 20.7602 25.7676 23.292 21.8496C23.5993 21.3739 23.4629 20.7393 22.9872 20.4319C22.5116 20.1247 21.8769 20.2609 21.5694 20.7367C18.8228 24.987 17.3711 29.9191 17.3711 35C17.3711 44.2649 22.1844 52.4259 29.4413 57.116H15.2007C14.6344 57.116 14.1753 57.575 14.1753 58.1414C14.1753 58.7078 14.6344 59.1668 15.2007 59.1668H33.2783C36.4721 60.5475 39.9908 61.3144 43.6856 61.3144C58.1953 61.3144 70 49.5098 70 35C70 20.4902 58.1953 8.68559 43.6855 8.68559Z" fill="#8C2446"/>
</svg>
