<svg width="120" height="120" viewBox="0 0 120 120" fill="none" xmlns="http://www.w3.org/2000/svg">
<path d="M63.9628 119.068C65.5055 118.946 66.3952 118.804 66.5656 118.654C66.7833 118.456 68.4301 118.211 69.7362 118.183C70.8815 118.155 72.4999 117.882 75.6044 117.185C76.92 116.884 79.324 115.99 81.7564 114.87C82.4852 114.54 83.5263 114.088 84.0753 113.872C84.6242 113.655 85.9493 113.044 87.0282 112.517C88.1072 111.98 89.0253 111.547 89.0537 111.547C89.1389 111.547 90.7384 110.606 92.1676 109.721C92.8396 109.297 93.521 108.893 93.6819 108.827C94.1457 108.629 95.2531 107.772 95.3382 107.546C95.414 107.349 97.6476 105.485 97.941 105.363C98.0262 105.334 98.1587 105.184 98.2344 105.033C98.3102 104.883 98.6414 104.572 98.9632 104.346C99.285 104.111 100.222 103.235 101.036 102.388C102.247 101.146 102.55 100.892 102.626 101.004C102.711 101.127 102.759 101.108 102.938 100.901C103.052 100.769 103.506 100.233 103.951 99.7243C104.405 99.216 104.907 98.6042 105.087 98.3689C105.267 98.1336 105.693 97.6253 106.033 97.2393C106.374 96.844 107.179 95.8086 107.822 94.9332C108.466 94.0483 109.157 93.1635 109.346 92.9564C110.046 92.2222 111.485 89.8125 112.744 87.271C113.198 86.358 113.681 85.4355 113.823 85.2096C114.258 84.5413 114.731 83.4117 114.722 83.0917C114.712 82.7905 114.959 82.1222 115.668 80.5314C116.217 79.2889 117.107 76.6627 117.211 76.0132C117.249 75.7026 117.448 74.9025 117.637 74.2247C118.262 72.0315 118.328 71.7491 118.574 70.1866C118.953 67.7392 119.132 65.8849 119.009 65.6872C118.953 65.5931 118.905 65.4048 118.905 65.2636C118.905 65.113 118.867 64.9342 118.82 64.8683C118.697 64.68 118.659 64.8871 118.536 66.5532C118.413 68.1722 118.177 69.6218 117.997 69.9136C117.921 70.0266 117.864 70.2431 117.864 70.3843C117.864 70.789 117.23 74.1494 117.05 74.686C116.956 74.9495 116.833 75.2131 116.757 75.2601C116.691 75.3166 116.426 76.0791 116.161 76.9545C115.593 78.9218 114.883 80.9832 114.249 82.5458C113.331 84.8331 111.513 88.3629 110.482 89.8972C110.283 90.1796 109.838 90.8856 109.478 91.4504C108.74 92.6176 107.198 94.6978 106.336 95.6862C106.014 96.0533 105.002 97.2299 104.084 98.3124C102.191 100.524 100.506 102.256 99.5974 102.906C99.2566 103.141 98.5373 103.734 97.9884 104.205C95.9534 105.984 93.0856 108.083 90.5112 109.693C89.0726 110.587 87.6718 111.359 87.4825 111.359C87.4163 111.359 86.5645 111.735 85.5896 112.196C83.9238 112.978 83.3181 113.232 82.277 113.533C82.0403 113.608 81.728 113.778 81.5671 113.91C81.2169 114.211 78.0652 115.444 77.2323 115.604C76.9105 115.66 76.5508 115.773 76.4373 115.839C76.0397 116.084 75.2826 116.348 74.6768 116.442C74.3456 116.489 73.948 116.602 73.7871 116.677C73.3896 116.875 72.6324 117.006 72.5662 116.894C72.5094 116.809 72.2917 116.828 71.5345 116.941C71.4778 116.95 71.4494 116.903 71.4588 116.846C71.4967 116.686 71.4683 116.686 70.1906 116.997C69.5754 117.148 68.6478 117.336 68.1273 117.421C67.6067 117.505 66.9252 117.618 66.6129 117.665C65.5812 117.844 64.2562 117.929 64.0196 117.835C63.8681 117.778 63.3097 117.788 62.4674 117.863C61.0193 117.985 57.47 117.929 56.4194 117.769C56.0692 117.712 54.9335 117.599 53.9113 117.524C51.4031 117.327 50.4945 117.166 48.8477 116.63C47.0115 116.028 45.9704 115.755 45.7433 115.811C45.554 115.858 45.0713 115.773 43.0174 115.322C42.2318 115.152 41.0109 114.644 40.6323 114.333C40.5566 114.267 39.7048 113.9 38.7394 113.514C37.774 113.128 36.0514 112.356 34.9062 111.801C33.7609 111.236 32.5116 110.653 32.133 110.502C30.6281 109.9 29.7195 109.382 27.571 107.848C27.183 107.575 26.634 107.264 26.3501 107.161C25.8201 106.972 25.1008 106.417 24.8357 105.984C24.7506 105.852 24.3436 105.485 23.9271 105.165C23.5012 104.854 22.4601 103.923 21.6083 103.104C20.747 102.285 19.7911 101.419 19.4787 101.174C18.6269 100.515 17.5101 99.3102 16.8381 98.3218C16.6961 98.1147 16.1377 97.4746 15.5982 96.8911C14.0081 95.1685 12.3991 93.2012 11.8407 92.2975C11.5568 91.8363 11.1593 91.2151 10.97 90.9327C10.7901 90.6597 10.5157 90.1985 10.3737 89.9255C10.2223 89.6525 10.0424 89.4078 9.96671 89.3795C9.73956 89.3042 8.67951 87.8264 8.14002 86.8192C7.45856 85.5485 6.78657 84.0801 6.51209 83.2705C6.38905 82.9034 6.01047 81.9151 5.66974 81.0962C5.00721 79.4583 4.70434 78.5264 4.80845 78.4323C4.84631 78.3947 4.93149 78.4511 5.00721 78.5547C5.13972 78.7335 5.14918 78.7241 5.08292 78.4605C5.04507 78.3099 4.91256 77.8864 4.78952 77.5287C4.40147 76.3709 4.53397 76.4179 5.62241 77.8769C6.10511 78.5076 6.51209 79.0441 6.53102 79.063C6.54049 79.0818 6.57835 79.0818 6.60674 79.063C6.62567 79.0347 6.51209 78.7335 6.3512 78.3947C6.15244 77.9522 6.001 77.7546 5.84956 77.7169C5.6792 77.6699 5.57509 77.491 5.33847 76.8415C5.17757 76.3803 5.00721 75.7967 4.95042 75.5237C4.9031 75.2601 4.76112 74.7895 4.62862 74.4883C4.50558 74.1871 4.33521 73.707 4.25003 73.4246C4.16485 73.1422 3.94716 72.5022 3.76733 72.0127C3.48339 71.2785 3.05748 69.4053 3.05748 68.9347C3.05748 68.737 3.32249 68.7935 3.47393 69.0288C3.60643 69.2359 3.83359 70.0172 3.95663 70.7325C3.98502 70.9302 4.04181 71.0714 4.07021 71.0432C4.13646 70.9773 3.82412 68.3793 3.72001 68.1157C3.63483 67.9181 3.63483 67.9181 3.63483 68.1346C3.62537 68.2475 3.5875 68.3417 3.54018 68.3417C3.41714 68.3417 3.34142 68.0969 3.34142 67.7298C3.34142 67.5604 3.27517 67.3627 3.18999 67.2968C2.93444 67.0897 2.84926 66.732 2.82086 65.8472C2.80193 65.386 2.76408 64.0682 2.72622 62.9292C2.67889 61.4137 2.68835 60.6325 2.783 60.0112C2.84926 59.5406 2.91551 58.2416 2.91551 57.0932C2.93444 53.6951 3.21838 50.9089 3.71055 49.2805C3.80519 48.9699 3.9377 48.4239 4.00395 48.0568C4.07021 47.6991 4.25003 47.0967 4.39201 46.7296C4.53397 46.3719 4.80845 45.3271 4.98828 44.4234C5.17757 43.5198 5.53723 42.1737 5.79278 41.4207C6.04832 40.6677 6.39852 39.6134 6.56889 39.0675C6.76764 38.4462 7.29766 37.2602 8.02644 35.82C9.27579 33.3632 9.78688 32.2902 9.73009 32.2902C9.71116 32.2902 9.52187 32.6196 9.30418 33.0338C9.09595 33.4385 8.85934 33.8527 8.78362 33.9468C8.65112 34.1163 8.65112 34.1163 8.64165 33.9562C8.64165 33.5703 10.1939 30.1817 10.6198 29.6545C10.7617 29.4757 11.0551 28.9674 11.2634 28.525C11.4716 28.0826 11.9638 27.3013 12.3518 26.7836C12.7399 26.2659 13.1752 25.6352 13.3267 25.3717C13.8283 24.4868 14.169 23.9597 14.7085 23.2537C15.3143 22.4536 15.5036 22.2654 15.5887 22.3878C15.6361 22.4631 14.0176 24.8634 13.3645 25.6917C13.1658 25.9364 13.1374 26.0776 13.2794 26.0776C13.3267 26.0776 13.4876 25.88 13.6295 25.6258C14.0081 24.9669 15.0587 23.6962 15.3521 23.5361C16.0241 23.169 16.2986 22.9243 16.8475 22.1995C17.3492 21.5406 17.4154 21.3994 17.3018 21.3147C17.1031 21.1641 17.122 21.0605 17.406 20.797C17.5479 20.6746 17.9265 20.2604 18.2578 19.8745C19.0623 18.9426 22.8482 15.8928 23.4539 15.6858C23.7473 15.5822 24.7316 14.8857 24.7316 14.7821C24.7316 14.7539 24.6938 14.6692 24.637 14.5939C24.5329 14.4244 24.2868 14.5468 23.6432 15.0739C23.3971 15.281 23.1605 15.441 23.1226 15.441C23.0848 15.441 22.6778 15.714 22.2235 16.0529C21.4001 16.6647 21.0877 16.7871 21.5231 16.3258C21.6461 16.1941 22.3844 15.601 23.17 15.0174C24.2111 14.2362 24.618 13.8691 24.7032 13.6526L24.8168 13.3608L24.4666 13.6149C23.4255 14.3868 20.6997 16.9094 17.3492 20.204C14.5949 22.9055 14.0365 23.4044 14.0365 23.1502C14.0365 22.9714 14.9735 21.7665 15.4089 21.39C15.6361 21.2017 16.3838 20.411 17.0747 19.6298C18.8824 17.5966 20.8416 15.6387 21.9869 14.7068C22.5358 14.255 23.293 13.6149 23.6716 13.2666C24.0502 12.9278 24.5802 12.523 24.8547 12.3818C25.1291 12.2406 25.7538 11.8359 26.246 11.4876C28.385 9.97211 29.9561 9.04023 32.7766 7.60006C33.7893 7.08235 34.944 6.47992 35.3321 6.26342C36.1934 5.76454 37.5279 5.37861 37.7456 5.55745C37.8686 5.65158 37.9822 5.61393 38.4365 5.35037C39.9319 4.4279 41.7586 3.68428 44.2573 2.9689C45.4972 2.62062 46.5951 2.35706 46.8506 2.34765C47.3428 2.34765 47.7592 2.27234 50.2863 1.76405C52.7471 1.26516 54.8104 1.04866 57.7729 0.97336C60.0255 0.916882 60.4419 0.982773 59.5806 1.25575C59.0885 1.41577 55.7758 1.6605 55.2363 1.57579C54.8672 1.5099 52.6146 1.82052 51.7533 2.03702C50.769 2.30058 50.3526 2.35706 49.5765 2.36647C49.1411 2.37589 48.4028 2.47001 47.8255 2.6018C46.2827 2.95949 46.1218 3.01596 46.1218 3.15716C46.1218 3.38307 44.6453 4.00432 43.1215 4.41849C42.336 4.62557 41.5504 4.80442 41.3895 4.80442C41.2191 4.80442 40.8311 4.94561 40.5093 5.12446C40.1875 5.3033 39.5439 5.60452 39.0801 5.79278C37.897 6.27284 32.8334 8.51311 32.2371 8.82374C31.9627 8.96493 31.6598 9.19084 31.5557 9.33204C31.4421 9.48264 30.7512 9.95329 30.0129 10.3863C28.6405 11.1958 28.0253 11.6759 28.3755 11.6759C28.4607 11.6759 28.8204 11.4688 29.1706 11.224C30.0792 10.5557 30.401 10.3863 30.4862 10.5181C30.5335 10.5934 30.7985 10.4898 31.3569 10.1604C31.8018 9.90622 32.2371 9.69914 32.3223 9.69914C32.5968 9.69914 34.2247 8.81432 35.2658 8.10836C36.2218 7.44945 36.9789 7.11059 39.118 6.35755C39.6101 6.18812 40.5093 5.83043 41.1055 5.55745C41.7018 5.29389 42.8755 4.84207 43.7083 4.55968C45.0239 4.11728 45.3173 4.05139 45.9515 4.05139C46.756 4.05139 47.8728 3.86313 48.4123 3.63722C48.9234 3.42072 52.236 2.83712 53.4664 2.74299C54.0722 2.69592 54.6306 2.6018 54.7915 2.51708C54.9429 2.44178 55.3878 2.34765 55.7758 2.30999C56.1639 2.27234 57.1009 2.18763 57.8581 2.11232C59.5333 1.9523 61.8238 1.877 62.1834 1.97113C62.3727 2.02761 62.1929 2.05585 61.502 2.11232C60.6123 2.1688 60.423 2.20645 60.5176 2.30058C60.5366 2.32882 61.3789 2.35706 62.3727 2.37589C63.376 2.39471 64.1615 2.37589 64.1237 2.34765C64.0858 2.31941 63.8019 2.23469 63.4896 2.1688L62.9217 2.04643L63.5369 1.90524L64.1521 1.75463L63.7924 1.6605C63.6031 1.61344 63.4422 1.53814 63.4422 1.49107C63.4422 1.25575 67.8055 1.62285 71.7712 2.17821C74.1563 2.51708 77.838 3.41131 78.5857 3.82548C78.7182 3.90078 79.4376 4.16434 80.1947 4.41849C83.3654 5.49156 83.7535 5.63276 83.9049 5.8116C83.9711 5.89632 84.5863 6.22577 85.2678 6.54581C86.4509 7.11059 86.82 7.34591 86.4982 7.34591C86.3657 7.34591 86.3657 7.37415 86.4604 7.53417C86.6591 7.85421 86.4509 7.86362 85.6275 7.58123C84.5106 7.20471 83.886 6.91291 83.886 6.75289C83.886 6.66818 83.7156 6.57405 83.4506 6.50816C83.2045 6.44227 82.7313 6.26342 82.3811 6.1034C82.0403 5.9528 81.3116 5.67041 80.7626 5.49156C79.6742 5.14328 79.3429 4.96444 79.3429 4.75735C79.3429 4.68205 79.2293 4.59733 79.0779 4.55968C78.3775 4.40908 77.7623 4.21141 77.6298 4.08904C77.45 3.92902 76.6833 3.66546 75.2258 3.25129C73.3802 2.74299 72.6987 2.61121 72.6135 2.7524C72.5567 2.84653 72.3296 2.82771 71.5156 2.69592C70.9572 2.6018 69.405 2.47001 68.0799 2.39471C66.7549 2.31941 65.5812 2.25352 65.4771 2.2441C65.3636 2.22528 65.2878 2.27234 65.2878 2.35706C65.2878 2.47001 65.5434 2.51708 66.6129 2.61121C67.3417 2.66769 68.3071 2.72416 68.7614 2.72416C70.5407 2.74299 74.7147 3.67487 78.5479 4.89855C80.4787 5.5198 83.0057 6.687 83.1666 7.02587C83.2518 7.21413 84.823 8.01423 86.5455 8.74843C87.7665 9.27556 89.2903 10.1321 90.3882 10.904C91.789 11.8829 92.319 12.2218 92.8585 12.4854C93.133 12.6171 93.5589 12.8807 93.805 13.069C94.0416 13.2478 94.5243 13.5208 94.865 13.6808C95.5654 13.9914 96.0954 14.3679 97.5435 15.5728C98.2912 16.1941 98.5562 16.467 98.5278 16.5894C98.4711 16.8059 101.036 19.2909 102.077 20.0157C102.844 20.5617 103.677 21.4465 104.756 22.8772C105.115 23.3573 105.806 24.1574 106.289 24.6469C107.103 25.4658 107.841 26.52 108.106 27.2354C108.295 27.7155 109.043 28.7885 109.232 28.8544C109.478 28.9297 110.406 30.3511 111.125 31.7442C111.674 32.789 113.227 35.6976 113.274 35.7541C113.293 35.7729 113.331 35.7447 113.359 35.6976C113.387 35.6412 113.283 35.3588 113.122 35.0481C112.668 34.2104 111.759 32.3749 111.618 32.0078C111.551 31.8289 111.229 31.2736 110.908 30.7841C109.109 28.0261 108.418 27.0001 107.993 26.4165C107.444 25.6729 106.951 24.901 106.649 24.2892C106.526 24.0538 106.128 23.5455 105.749 23.1596C105.371 22.7737 104.699 22.0489 104.254 21.5594C103.8 21.07 102.844 20.091 102.105 19.385C101.377 18.6697 100.809 18.0672 100.847 18.0296C100.96 17.9072 101.708 18.5755 103.809 20.6652C107.519 24.3551 109.024 26.3129 111.996 31.3489C112.375 31.9984 112.82 32.7137 112.971 32.9396C113.132 33.1656 113.444 33.6739 113.662 34.0692C113.889 34.4645 114.078 34.7658 114.078 34.7375C114.078 34.7093 113.927 34.2669 113.738 33.7492C113.548 33.2314 113.397 32.6855 113.397 32.5349C113.406 32.3466 113.198 31.9419 112.772 31.3018C112.422 30.7747 112.024 30.1346 111.883 29.8804C111.741 29.6263 111.447 29.1274 111.229 28.7603C111.012 28.4026 110.766 27.9131 110.671 27.6684C110.406 26.9624 109.27 25.2587 108.646 24.628C108.333 24.308 107.661 23.555 107.169 22.9714C105.248 20.6934 103.847 19.1121 103.743 19.1121C103.449 19.1121 102.314 17.8696 102.304 17.5307C102.295 17.3236 102.096 17.1259 101.159 16.4106C100.534 15.9211 99.6636 15.2057 99.2188 14.8009C98.7739 14.3962 98.0925 13.8502 97.695 13.5867C97.3069 13.3231 96.7296 12.8525 96.4172 12.5513C96.1143 12.2406 95.4329 11.7135 94.9123 11.3746C94.3918 11.0358 93.8901 10.6687 93.7955 10.5651C93.4832 10.2263 93.7955 10.2639 94.3823 10.6404C94.7041 10.8475 94.988 11.0169 95.007 11.0169C95.1584 11.0169 93.9469 9.97211 93.7387 9.92505C93.4642 9.85916 92.4704 9.25673 90.3693 7.88244C89.5837 7.37415 88.4763 6.72466 87.9085 6.45168C86.2237 5.64217 82.7881 4.20199 80.9803 3.53367C80.0528 3.19481 79.0779 2.81829 78.8224 2.69592C78.3113 2.45119 76.4373 2.07467 75.7463 2.07467C75.5097 2.07467 74.8093 1.96172 74.1847 1.82994C73.56 1.69815 72.8312 1.57579 72.5757 1.55696C71.951 1.50048 69.0737 1.05808 68.6478 0.945121C68.3071 0.860405 67.9569 0.822753 65.6664 0.65332C62.6283 0.436823 61.7291 0.333281 61.6534 0.2015C61.5682 0.0697191 60.7069 0.0791321 58.3975 0.248565C57.6688 0.305042 57.5741 0.295629 57.5741 0.154435C57.5741 -0.0244101 57.0441 -0.0620618 56.9873 0.116784C56.9589 0.182674 56.4951 0.267391 55.719 0.333281C55.047 0.389758 54.4318 0.465062 54.3561 0.493301C54.2804 0.530952 53.8356 0.578017 53.3718 0.606256C52.908 0.643907 52.0373 0.756863 51.4315 0.860405C50.627 1.01101 50.1349 1.04866 49.5765 1.0016C48.9139 0.954534 48.753 0.982773 48.2514 1.18986C47.6362 1.43459 45.8852 1.90524 44.8914 2.07467C44.5507 2.13115 43.0174 2.6018 41.4652 3.11951C39.9225 3.6278 38.5974 4.05139 38.5217 4.05139C38.2661 4.05139 36.0703 4.89855 35.3321 5.28448C34.944 5.48215 34.1301 5.87749 33.5338 6.15988C32.9375 6.44227 31.6787 7.12941 30.7417 7.69419C28.5364 9.02141 28.6216 8.96493 28.5554 9.15319C28.4891 9.36027 26.3596 10.9228 26.1324 10.9228C25.9147 10.9228 25.9147 10.7816 26.1513 10.4522C26.3406 10.1886 26.3406 10.1792 26.1608 10.1227C26.0378 10.0851 25.8579 10.1415 25.6686 10.2827C25.4226 10.471 24.3341 11.7323 23.7378 12.5324C23.6337 12.6736 23.1605 13.0972 22.6967 13.4737C21.277 14.6033 19.7532 15.9681 18.1253 17.5401C16.7056 18.9238 16.2418 19.2815 16.6204 18.6979C16.7056 18.5755 17.0747 18.1519 17.4343 17.7566C17.8035 17.3613 18.1063 16.9942 18.1063 16.9471C18.1063 16.7306 17.8129 17.0224 15.8443 19.2344C15.4562 19.658 15.4468 19.6863 15.7023 19.5639C15.9863 19.4133 16.2134 19.4321 16.2134 19.5921C16.2134 19.6486 15.7307 20.204 15.1439 20.8346C14.1122 21.9359 12.9481 23.5267 12.4654 24.4774C12.3423 24.7222 11.9354 25.2775 11.5757 25.7105C10.3074 27.1978 8.26306 30.3134 8.26306 30.7558C8.26306 31.0006 7.78983 31.8289 7.40177 32.2431C7.07051 32.6008 6.08618 34.5681 6.08618 34.8693C6.08618 34.9917 5.80224 35.7635 5.46151 36.5824C5.11132 37.4108 4.68541 38.5215 4.50558 39.0675C4.14592 40.1499 4.07021 40.2911 3.79573 40.2911C3.62537 40.2911 3.60643 40.2535 3.66322 39.8487C3.70108 39.5946 3.74841 39.3122 3.77679 39.2087C3.81466 39.0486 3.81466 39.0392 3.72001 39.1804C3.67268 39.2651 3.38875 40.0652 3.09534 40.9689C2.80193 41.8631 2.50853 42.6914 2.43281 42.8044C2.36656 42.9173 2.14887 43.7551 1.96904 44.6587C1.78922 45.5718 1.53367 46.6449 1.41062 47.0402C1.01311 48.3015 0.785957 49.3275 0.606125 50.6265C0.492546 51.436 0.378975 51.9255 0.284325 52.0385C0.199142 52.1326 0.1045 52.462 0.0666351 52.7633L0.00038147 53.3186L0.255936 53.1586C0.473618 53.0174 0.511482 53.008 0.5588 53.1304C0.625053 53.2998 0.643982 55.6624 0.615593 60.0112C0.596664 61.9785 0.625053 63.4093 0.691307 63.7293C0.748093 64.0117 0.87114 64.8024 0.965782 65.4707C1.12669 66.6473 1.12669 66.7226 0.965782 67.4474C0.823814 68.0687 0.814346 68.3511 0.8806 69.0947C0.984711 70.1772 1.06043 70.5725 1.21187 70.8831C1.27812 71.0149 1.3633 71.3726 1.39169 71.6832C1.42955 71.9939 1.56206 72.7751 1.69456 73.4246C1.82707 74.0647 1.91225 74.686 1.88386 74.7989C1.73242 75.3825 2.50853 77.6416 2.67889 77.1522C2.77354 76.8698 4.2311 80.0325 4.95988 82.1033C5.13025 82.6022 5.24383 83.0446 5.21543 83.0823C5.09239 83.1952 4.88417 82.9411 4.71381 82.4799C4.56237 82.0751 4.20271 81.5668 4.12699 81.6515C4.10806 81.6703 4.18378 81.8868 4.28789 82.141C4.40147 82.3857 4.46772 82.687 4.43932 82.7999C4.40147 82.9223 4.46772 83.1199 4.60969 83.3176C4.7422 83.4965 5.08292 84.1083 5.37633 84.6731C5.66974 85.2473 6.0294 85.8403 6.18083 85.9909C6.3228 86.1509 6.69193 86.6686 6.98533 87.1581C7.27873 87.6476 7.86555 88.5418 8.27253 89.1348C9.49347 90.9044 10.5346 92.5329 10.5346 92.6741C10.5346 93.0223 12.1531 95.1214 14.1785 97.4276C14.841 98.1806 15.5603 99.0278 15.7686 99.3102C16.3364 100.073 16.9138 100.769 17.671 101.616C18.0685 102.059 18.1915 102.247 17.9833 102.068C17.4817 101.635 17.387 101.682 17.7278 102.172C18.0685 102.671 18.5417 103.047 18.608 102.868C18.6269 102.802 18.608 102.671 18.5606 102.567C18.3714 102.219 19.0434 102.718 20.2738 103.857C20.9268 104.468 21.7408 105.165 22.0815 105.41C22.4222 105.645 22.9901 106.078 23.3592 106.37C24.7979 107.509 26.3122 108.62 26.7665 108.845C27.0221 108.977 27.4101 109.222 27.6184 109.382C28.2904 109.928 29.2463 110.493 29.6627 110.606C30.1928 110.747 31.4042 111.406 31.8301 111.792C32.3791 112.272 33.1647 112.742 34.3004 113.279C36.2123 114.164 37.0073 114.446 41.8154 115.915C46.349 117.298 49.8225 118.032 52.6241 118.183C53.6557 118.24 53.845 118.287 54.3183 118.522C54.8199 118.786 54.9429 118.804 56.6182 118.889C57.5836 118.946 58.8897 119.03 59.5144 119.077C60.811 119.19 62.439 119.181 63.9628 119.068ZM3.92823 75.9379C3.89037 75.6649 4.04181 75.5896 4.13646 75.8343C4.2311 76.0791 4.20271 76.2673 4.07021 76.2297C4.01341 76.2014 3.94716 76.0697 3.92823 75.9379ZM2.06369 65.4236C1.88386 64.8495 1.76082 62.788 1.91225 62.788C2.06369 62.788 2.1678 63.0987 2.29084 64.0117C2.35709 64.4541 2.4896 65.2448 2.59371 65.7813C2.68835 66.3179 2.77354 67.0521 2.76408 67.4286V68.1063L2.48013 66.9768C2.31924 66.3555 2.1394 65.659 2.06369 65.4236ZM1.21187 57.7145C1.27812 56.3119 1.5242 53.3186 1.59045 53.0927C1.60938 53.0174 1.67564 52.415 1.72296 51.7655C1.82707 50.523 1.88386 50.2688 2.03529 50.2688C2.18673 50.2688 2.03529 55.2012 1.8744 55.5777C1.80814 55.7377 1.67564 56.4908 1.59992 57.2344C1.41062 58.9193 1.3633 59.1358 1.24026 59.0605C1.174 59.0229 1.16454 58.5616 1.21187 57.7145ZM2.62211 49.4217C2.6505 49.2711 2.70729 49.0169 2.73568 48.8569C2.83033 48.3674 2.99123 48.5274 2.93444 49.0452C2.86819 49.5629 2.8114 49.7041 2.66943 49.7041C2.61264 49.7041 2.59371 49.5911 2.62211 49.4217ZM3.27517 48.085C3.30357 48.0191 3.32249 48.0662 3.32249 48.198C3.32249 48.3298 3.30357 48.3768 3.27517 48.3204C3.25624 48.2545 3.25624 48.1415 3.27517 48.085ZM3.2941 46.9837C3.33195 46.6919 3.37928 46.1648 3.38875 45.7977C3.41714 45.1388 3.96609 43.3409 4.24057 43.0209C4.51505 42.7008 4.5813 42.4655 4.45825 42.2679C4.35414 42.1078 4.42039 41.8443 4.88417 40.4417C5.41419 38.8604 6.12404 37.2225 6.44584 36.8742C6.56889 36.7331 6.57835 36.686 6.47424 36.6201C6.36066 36.5542 6.40798 36.3848 6.70139 35.707C7.23141 34.474 7.48696 34.0033 7.79929 33.6739C7.96019 33.5138 8.04537 33.3632 7.98859 33.3444C7.78036 33.2785 7.89394 32.9396 8.58486 31.5842C9.33257 30.1158 9.52187 29.8428 9.78688 29.8428C9.96671 29.8428 10.156 29.6263 10.5724 28.9392C11.0741 28.092 10.9321 28.7038 10.3926 29.7298C10.0897 30.2852 9.6733 31.1418 9.45561 31.6313C9.23792 32.1207 8.79308 32.9773 8.47128 33.5327C8.14948 34.0974 7.88448 34.5869 7.88448 34.634C7.88448 34.6716 7.61946 35.3211 7.30713 36.0647C6.98533 36.8084 6.54049 37.9473 6.30387 38.5968C6.07672 39.2463 5.61295 40.3759 5.27222 41.1101C4.89363 41.9572 4.66648 42.5785 4.66648 42.7856C4.66648 43.1715 3.89984 46.2872 3.60643 47.0873C3.36035 47.765 3.19946 47.7085 3.2941 46.9837Z" fill="white"/>
<path d="M81.0478 60L48.0478 79.0526V40.9474L81.0478 60Z" fill="white"/>
</svg>
