<svg width="120" height="121" viewBox="0 0 120 121" fill="none" xmlns="http://www.w3.org/2000/svg">
<path d="M63.8918 120.128C64.0906 120.11 64.2515 120.044 64.2515 119.987C64.2515 119.855 63.0305 119.959 62.8885 120.1C62.7939 120.194 63.1346 120.204 63.8918 120.128Z" fill="#8C2446"/>
<path d="M57.1174 120.044C57.089 119.884 57.0133 119.865 56.436 119.884C55.2718 119.903 53.2464 119.743 52.9435 119.592C52.7826 119.517 52.2715 119.413 51.8078 119.347C51.3345 119.291 50.7004 119.178 50.388 119.093C50.0757 119.018 49.4794 118.896 49.063 118.83C45.5232 118.246 39.3806 116.448 37.7906 115.535C37.5729 115.413 37.0523 115.177 36.6169 115.027C36.1816 114.867 35.7651 114.679 35.6799 114.603C35.5947 114.528 35.0363 114.255 34.4401 114.001C33.8438 113.737 32.973 113.361 32.5187 113.144C32.055 112.928 31.5912 112.758 31.4776 112.758C31.0328 112.758 31.6764 113.144 33.6639 114.086C38.6613 116.429 42.4472 117.766 47.1417 118.82C49.9716 119.46 53.4546 119.978 56.1804 120.157C57.089 120.213 57.1364 120.213 57.1174 120.044Z" fill="#8C2446"/>
<path d="M68.7485 119.704C69.6098 119.591 70.3196 119.45 70.5468 119.337L70.9254 119.158L70.4994 119.196C70.2628 119.215 69.2312 119.347 68.1995 119.478C67.1679 119.61 66.2782 119.723 66.2119 119.733C66.1457 119.733 66.1836 119.77 66.2877 119.817C66.5716 119.94 67.1868 119.911 68.7485 119.704Z" fill="#8C2446"/>
<path d="M64.2065 119.432C65.7492 119.309 66.6389 119.168 66.8093 119.017C67.027 118.82 68.6738 118.575 69.98 118.547C71.1252 118.519 72.7437 118.246 75.8481 117.549C77.1637 117.248 79.5677 116.354 82.0001 115.233C82.7289 114.904 83.77 114.452 84.319 114.236C84.8679 114.019 86.193 113.407 87.272 112.88C88.3509 112.344 89.269 111.911 89.2974 111.911C89.3826 111.911 90.9821 110.969 92.4113 110.085C93.0833 109.661 93.7647 109.256 93.9256 109.19C94.3894 108.993 95.4968 108.136 95.582 107.91C95.6577 107.713 97.8913 105.849 98.1847 105.726C98.2699 105.698 98.4024 105.548 98.4782 105.397C98.5539 105.246 98.8851 104.936 99.2069 104.71C99.5287 104.475 100.466 103.599 101.28 102.752C102.491 101.509 102.794 101.255 102.87 101.368C102.955 101.491 103.002 101.472 103.182 101.265C103.296 101.133 103.75 100.596 104.195 100.088C104.649 99.5798 105.151 98.968 105.331 98.7327C105.51 98.4973 105.936 97.989 106.277 97.6031C106.618 97.2078 107.422 96.1723 108.066 95.2969C108.709 94.4121 109.4 93.5273 109.59 93.3202C110.29 92.586 111.729 90.1763 112.988 87.6348C113.442 86.7218 113.925 85.7993 114.067 85.5734C114.502 84.9051 114.975 83.7755 114.966 83.4555C114.956 83.1543 115.202 82.4859 115.912 80.8952C116.461 79.6526 117.351 77.0264 117.455 76.377C117.493 76.0663 117.691 75.2662 117.881 74.5885C118.505 72.3953 118.572 72.1129 118.818 70.5504C119.196 68.103 119.376 66.2486 119.253 66.051C119.196 65.9568 119.149 65.7686 119.149 65.6274C119.149 65.4768 119.111 65.2979 119.064 65.232C118.941 65.0438 118.903 65.2509 118.78 66.917C118.657 68.536 118.42 69.9856 118.24 70.2774C118.165 70.3903 118.108 70.6068 118.108 70.748C118.108 71.1528 117.474 74.5132 117.294 75.0497C117.199 75.3133 117.076 75.5769 117.001 75.6239C116.934 75.6804 116.669 76.4428 116.404 77.3182C115.836 79.2855 115.127 81.347 114.492 82.9095C113.574 85.1969 111.757 88.7267 110.725 90.261C110.527 90.5434 110.082 91.2494 109.722 91.8141C108.984 92.9814 107.441 95.0616 106.58 96.05C106.258 96.4171 105.245 97.5937 104.327 98.6762C102.434 100.888 100.75 102.62 99.8411 103.27C99.5003 103.505 98.781 104.098 98.2321 104.569C96.1972 106.348 93.3294 108.447 90.755 110.056C89.3163 110.951 87.9156 111.722 87.7263 111.722C87.66 111.722 86.8082 112.099 85.8333 112.56C84.1675 113.342 83.5618 113.596 82.5207 113.897C82.2841 113.972 81.9717 114.142 81.8108 114.273C81.4606 114.575 78.3089 115.808 77.476 115.968C77.1542 116.024 76.7945 116.137 76.681 116.203C76.2834 116.448 75.5263 116.711 74.9205 116.805C74.5893 116.853 74.1918 116.965 74.0309 117.041C73.6333 117.238 72.8762 117.37 72.8099 117.257C72.7531 117.173 72.5354 117.191 71.7783 117.304C71.7215 117.314 71.6931 117.267 71.7025 117.21C71.7404 117.05 71.712 117.05 70.4343 117.361C69.8191 117.511 68.8915 117.7 68.371 117.784C67.8504 117.869 67.1689 117.982 66.8566 118.029C65.825 118.208 64.4999 118.293 64.2633 118.199C64.1119 118.142 63.5534 118.152 62.7111 118.227C61.263 118.349 57.7137 118.293 56.6631 118.133C56.3129 118.076 55.1772 117.963 54.155 117.888C51.6469 117.69 50.7382 117.53 49.0914 116.994C47.2552 116.391 46.2141 116.118 45.987 116.175C45.7977 116.222 45.315 116.137 43.2611 115.685C42.4756 115.516 41.2546 115.008 40.876 114.697C40.8003 114.631 39.9485 114.264 38.9831 113.878C38.0177 113.492 36.2951 112.72 35.1499 112.165C34.0047 111.6 32.7553 111.017 32.3767 110.866C30.8718 110.263 29.9632 109.746 27.8148 108.211C27.4267 107.938 26.8777 107.628 26.5938 107.524C26.0638 107.336 25.3445 106.781 25.0795 106.348C24.9943 106.216 24.5873 105.849 24.1708 105.529C23.7449 105.218 22.7038 104.286 21.852 103.467C20.9907 102.648 20.0348 101.782 19.7224 101.538C18.8706 100.879 17.7538 99.6739 17.0818 98.6856C16.9398 98.4785 16.3814 97.8384 15.8419 97.2548C14.2518 95.5322 12.6428 93.5649 12.0844 92.6613C11.8005 92.2001 11.403 91.5788 11.2137 91.2964C11.0339 91.0235 10.7594 90.5622 10.6174 90.2893C10.466 90.0163 10.2861 89.7715 10.2104 89.7433C9.98327 89.668 8.92323 88.1902 8.38374 87.183C7.70228 85.9122 7.03028 84.4438 6.75581 83.6343C6.63277 83.2672 6.25418 82.2789 5.91345 81.4599C5.25092 79.8221 4.94805 78.8902 5.05216 78.7961C5.09002 78.7584 5.1752 78.8149 5.25092 78.9184C5.38343 79.0973 5.39289 79.0879 5.32664 78.8243C5.28878 78.6737 5.15627 78.2501 5.03323 77.8924C4.64518 76.7346 4.77769 76.7817 5.86613 78.2407C6.34882 78.8714 6.75581 79.4079 6.77473 79.4267C6.7842 79.4456 6.82206 79.4456 6.85046 79.4267C6.86938 79.3985 6.75581 79.0973 6.59491 78.7584C6.39615 78.316 6.24471 78.1183 6.09328 78.0807C5.92291 78.0336 5.8188 77.8548 5.58218 77.2053C5.42129 76.7441 5.25092 76.1605 5.19413 75.8875C5.14681 75.6239 5.00484 75.1533 4.87234 74.8521C4.74929 74.5508 4.57893 74.0708 4.49374 73.7884C4.40856 73.506 4.19087 72.8659 4.01105 72.3765C3.7271 71.6423 3.30119 69.7691 3.30119 69.2984C3.30119 69.1008 3.56621 69.1572 3.71764 69.3926C3.85014 69.5996 4.0773 70.3809 4.20034 71.0963C4.22874 71.294 4.28552 71.4352 4.31392 71.4069C4.38017 71.341 4.06783 68.7431 3.96372 68.4795C3.87854 68.2818 3.87854 68.2818 3.87854 68.4983C3.86908 68.6113 3.83121 68.7054 3.7839 68.7054C3.66085 68.7054 3.58514 68.4607 3.58514 68.0936C3.58514 67.9241 3.51888 67.7265 3.4337 67.6606C3.17815 67.4535 3.09297 67.0958 3.06458 66.211C3.04565 65.7498 3.00779 64.432 2.96993 63.293C2.92261 61.7775 2.93207 60.9962 3.02672 60.375C3.09297 59.9043 3.15923 58.6054 3.15923 57.457C3.17815 54.0589 3.4621 51.2727 3.95426 49.6442C4.0489 49.3336 4.18141 48.7877 4.24767 48.4206C4.31392 48.0629 4.49374 47.4605 4.63572 47.0933C4.77769 46.7357 5.05216 45.6908 5.23199 44.7872C5.42129 43.8835 5.78094 42.5375 6.03649 41.7845C6.29204 41.0314 6.64223 39.9772 6.8126 39.4312C7.01135 38.81 7.54137 37.6239 8.27016 36.1838C9.5195 33.727 10.0306 32.6539 9.9738 32.6539C9.95487 32.6539 9.76558 32.9834 9.54789 33.3975C9.33967 33.8023 9.10305 34.2165 9.02734 34.3106C8.89483 34.48 8.89483 34.48 8.88536 34.32C8.88536 33.9341 10.4376 30.5454 10.8635 30.0183C11.0055 29.8395 11.2989 29.3312 11.5071 28.8888C11.7153 28.4463 12.2075 27.6651 12.5955 27.1474C12.9836 26.6297 13.419 25.999 13.5704 25.7354C14.072 24.8506 14.4127 24.3235 14.9522 23.6175C15.558 22.8174 15.7473 22.6292 15.8325 22.7515C15.8798 22.8268 14.2613 25.2271 13.6082 26.0555C13.4095 26.3002 13.3811 26.4414 13.5231 26.4414C13.5704 26.4414 13.7313 26.2437 13.8733 25.9896C14.2518 25.3307 15.3024 24.0599 15.5958 23.8999C16.2678 23.5328 16.5423 23.2881 17.0913 22.5633C17.5929 21.9044 17.6591 21.7632 17.5456 21.6785C17.3468 21.5278 17.3657 21.4243 17.6497 21.1607C17.7916 21.0384 18.1702 20.6242 18.5015 20.2383C19.306 19.3064 23.0919 16.2566 23.6976 16.0495C23.991 15.946 24.9753 15.2494 24.9753 15.1459C24.9753 15.1176 24.9375 15.0329 24.8807 14.9576C24.7766 14.7882 24.5305 14.9106 23.8869 15.4377C23.6408 15.6448 23.4042 15.8048 23.3663 15.8048C23.3285 15.8048 22.9215 16.0778 22.4672 16.4166C21.6438 17.0285 21.3314 17.1508 21.7668 16.6896C21.8899 16.5578 22.6281 15.9648 23.4137 15.3812C24.4548 14.5999 24.8618 14.2328 24.9469 14.0163L25.0605 13.7245L24.7103 13.9787C23.6692 14.7505 20.9434 17.2732 17.5929 20.5677C14.8387 23.2692 14.2802 23.7681 14.2802 23.514C14.2802 23.3351 15.2172 22.1303 15.6526 21.7538C15.8798 21.5655 16.6275 20.7748 17.3184 19.9935C19.1262 17.9604 21.0854 16.0025 22.2306 15.0706C22.7795 14.6188 23.5367 13.9787 23.9153 13.6304C24.2939 13.2915 24.8239 12.8868 25.0984 12.7456C25.3729 12.6044 25.9975 12.1996 26.4897 11.8514C28.6287 10.3359 30.1999 9.404 33.0203 7.96383C34.0331 7.44612 35.1877 6.84369 35.5758 6.62719C36.4371 6.12831 37.7716 5.74238 37.9893 5.92122C38.1123 6.01535 38.2259 5.9777 38.6802 5.71414C40.1756 4.79167 42.0023 4.04805 44.501 3.33267C45.7409 2.98439 46.8388 2.72083 47.0943 2.71142C47.5865 2.71142 48.0029 2.63611 50.53 2.12781C52.9908 1.62893 55.0541 1.41243 58.0166 1.33713C60.2692 1.28065 60.6856 1.34654 59.8243 1.61952C59.3322 1.77954 56.0195 2.02427 55.4801 1.93956C55.1109 1.87367 52.8583 2.18429 51.997 2.40079C51.0127 2.66435 50.5963 2.72083 49.8202 2.73024C49.3848 2.73965 48.6465 2.83378 48.0692 2.96556C46.5265 3.32326 46.3656 3.37973 46.3656 3.52093C46.3656 3.74684 44.8891 4.36809 43.3652 4.78226C42.5797 4.98934 41.7941 5.16819 41.6332 5.16819C41.4628 5.16819 41.0748 5.30938 40.753 5.48823C40.4312 5.66707 39.7876 5.96829 39.3238 6.15655C38.1407 6.6366 33.0771 8.87688 32.4808 9.18751C32.2064 9.3287 31.9035 9.55461 31.7994 9.6958C31.6858 9.84641 30.9949 10.3171 30.2566 10.7501C28.8843 11.5596 28.2691 12.0396 28.6192 12.0396C28.7044 12.0396 29.0641 11.8325 29.4143 11.5878C30.3229 10.9195 30.6447 10.7501 30.7299 10.8818C30.7772 10.9571 31.0422 10.8536 31.6006 10.5241C32.0455 10.27 32.4808 10.0629 32.566 10.0629C32.8405 10.0629 34.4684 9.17809 35.5095 8.47213C36.4655 7.81322 37.2227 7.47435 39.3617 6.72132C39.8538 6.55189 40.753 6.1942 41.3493 5.92122C41.9455 5.65766 43.1192 5.20584 43.9521 4.92345C45.2676 4.48105 45.5611 4.41515 46.1952 4.41515C46.9997 4.41515 48.1165 4.2269 48.656 4.00099C49.1671 3.78449 52.4797 3.20089 53.7102 3.10676C54.3159 3.05969 54.8743 2.96556 55.0352 2.88085C55.1866 2.80555 55.6315 2.71142 56.0195 2.67376C56.4076 2.63611 57.3446 2.5514 58.1018 2.47609C59.777 2.31607 62.0675 2.24077 62.4271 2.3349C62.6164 2.39138 62.4366 2.41962 61.7457 2.47609C60.856 2.53257 60.6667 2.57022 60.7614 2.66435C60.7803 2.69259 61.6226 2.72083 62.6164 2.73965C63.6197 2.75848 64.4053 2.73965 64.3674 2.71142C64.3295 2.68318 64.0456 2.59846 63.7333 2.53257L63.1654 2.4102L63.7806 2.26901L64.3958 2.1184L64.0361 2.02427C63.8468 1.97721 63.6859 1.9019 63.6859 1.85484C63.6859 1.61952 68.0492 1.98662 72.0149 2.54198C74.4 2.88085 78.0817 3.77508 78.8295 4.18924C78.962 4.26455 79.6813 4.52811 80.4384 4.78226C83.6091 5.85533 83.9972 5.99653 84.1486 6.17537C84.2149 6.26009 84.8301 6.58954 85.5115 6.90958C86.6946 7.47435 87.0637 7.70968 86.7419 7.70968C86.6094 7.70968 86.6094 7.73792 86.7041 7.89794C86.9028 8.21798 86.6946 8.22739 85.8712 7.945C84.7543 7.56848 84.1297 7.27668 84.1297 7.11666C84.1297 7.03195 83.9593 6.93782 83.6943 6.87193C83.4482 6.80604 82.975 6.62719 82.6248 6.46717C82.2841 6.31657 81.5553 6.03418 81.0063 5.85533C79.9179 5.50705 79.5866 5.32821 79.5866 5.12112C79.5866 5.04582 79.473 4.9611 79.3216 4.92345C78.6212 4.77285 78.006 4.57517 77.8735 4.45281C77.6937 4.29279 76.927 4.02923 75.4695 3.61506C73.6239 3.10676 72.9424 2.97498 72.8572 3.11617C72.8004 3.2103 72.5733 3.19147 71.7593 3.05969C71.2009 2.96556 69.6487 2.83378 68.3236 2.75848C66.9986 2.68318 65.825 2.61729 65.7209 2.60787C65.6073 2.58905 65.5316 2.63611 65.5316 2.72083C65.5316 2.83378 65.7871 2.88085 66.8566 2.97498C67.5854 3.03146 68.5508 3.08793 69.0051 3.08793C70.7845 3.10676 74.9584 4.03864 78.7916 5.26232C80.7224 5.88357 83.2495 7.05077 83.4104 7.38964C83.4955 7.5779 85.0667 8.378 86.7893 9.1122C88.0102 9.63933 89.534 10.4959 90.6319 11.2678C92.0327 12.2467 92.5627 12.5856 93.1022 12.8491C93.3767 12.9809 93.8026 13.2445 94.0487 13.4327C94.2853 13.6116 94.768 13.8846 95.1087 14.0446C95.8091 14.3552 96.3391 14.7317 97.7872 15.9366C98.5349 16.5578 98.8 16.8308 98.7716 16.9532C98.7148 17.1697 101.28 19.6547 102.321 20.3795C103.087 20.9254 103.92 21.8102 104.999 23.241C105.359 23.7211 106.05 24.5212 106.533 25.0106C107.347 25.8296 108.085 26.8838 108.35 27.5992C108.539 28.0792 109.287 29.1523 109.476 29.2182C109.722 29.2935 110.65 30.7149 111.369 32.108C111.918 33.1528 113.47 36.0614 113.518 36.1179C113.536 36.1367 113.574 36.1085 113.603 36.0614C113.631 36.0049 113.527 35.7225 113.366 35.4119C112.912 34.5742 112.003 32.7386 111.861 32.3715C111.795 32.1927 111.473 31.6373 111.151 31.1479C109.353 28.3899 108.662 27.3639 108.236 26.7803C107.687 26.0366 107.195 25.2648 106.892 24.6529C106.769 24.4176 106.372 23.9093 105.993 23.5234C105.615 23.1375 104.943 22.4127 104.498 21.9232C104.043 21.4337 103.087 20.4548 102.349 19.7488C101.62 19.0334 101.053 18.431 101.09 18.3933C101.204 18.271 101.952 18.9393 104.053 21.029C107.763 24.7188 109.268 26.6767 112.24 31.7126C112.618 32.3621 113.063 33.0775 113.215 33.3034C113.376 33.5293 113.688 34.0376 113.906 34.433C114.133 34.8283 114.322 35.1295 114.322 35.1013C114.322 35.073 114.171 34.6306 113.981 34.1129C113.792 33.5952 113.641 33.0493 113.641 32.8987C113.65 32.7104 113.442 32.3056 113.016 31.6656C112.666 31.1384 112.268 30.4984 112.126 30.2442C111.984 29.9901 111.691 29.4912 111.473 29.1241C111.255 28.7664 111.009 28.2769 110.915 28.0322C110.65 27.3262 109.514 25.6225 108.889 24.9918C108.577 24.6718 107.905 23.9187 107.413 23.3351C105.491 21.0572 104.091 19.4758 103.987 19.4758C103.693 19.4758 102.557 18.2333 102.548 17.8945C102.539 17.6874 102.34 17.4897 101.403 16.7743C100.778 16.2849 99.9073 15.5695 99.4625 15.1647C99.0176 14.76 98.3362 14.214 97.9387 13.9504C97.5506 13.6869 96.9733 13.2162 96.6609 12.915C96.3581 12.6044 95.6766 12.0773 95.156 11.7384C94.6355 11.3995 94.1339 11.0324 94.0392 10.9289C93.7269 10.59 94.0392 10.6277 94.626 11.0042C94.9478 11.2113 95.2318 11.3807 95.2507 11.3807C95.4021 11.3807 94.1906 10.3359 93.9824 10.2888C93.7079 10.2229 92.7142 9.6205 90.613 8.24621C89.8274 7.73792 88.7201 7.08843 88.1522 6.81545C86.4675 6.00594 83.0318 4.56576 81.224 3.89744C80.2965 3.55858 79.3216 3.18206 79.0661 3.05969C78.555 2.81496 76.681 2.43844 75.99 2.43844C75.7534 2.43844 75.053 2.32549 74.4284 2.19371C73.8037 2.06192 73.0749 1.93956 72.8194 1.92073C72.1947 1.86425 69.3174 1.42185 68.8915 1.30889C68.5508 1.22417 68.2006 1.18652 65.9101 1.01709C62.872 0.800593 61.9728 0.697051 61.8971 0.56527C61.8119 0.433489 60.9506 0.442902 58.6413 0.612334C57.9125 0.668812 57.8178 0.659399 57.8178 0.518205C57.8178 0.339359 57.2878 0.301708 57.231 0.480553C57.2026 0.546444 56.7389 0.63116 55.9628 0.697051C55.2908 0.753528 54.6756 0.828831 54.5998 0.85707C54.5241 0.894722 54.0793 0.941786 53.6155 0.970025C53.1517 1.00768 52.281 1.12063 51.6752 1.22417C50.8708 1.37478 50.3786 1.41243 49.8202 1.36537C49.1576 1.3183 48.9967 1.34654 48.4951 1.55363C47.8799 1.79836 46.1289 2.26901 45.1351 2.43844C44.7944 2.49492 43.2611 2.96556 41.7089 3.48328C40.1662 3.99157 38.8411 4.41515 38.7654 4.41515C38.5099 4.41515 36.314 5.26232 35.5758 5.64825C35.1877 5.84592 34.3738 6.24126 33.7775 6.52365C33.1812 6.80604 31.9224 7.49318 30.9854 8.05796C28.7802 9.38518 28.8653 9.3287 28.7991 9.51696C28.7328 9.72404 26.6033 11.2866 26.3761 11.2866C26.1584 11.2866 26.1584 11.1454 26.395 10.8159C26.5843 10.5524 26.5843 10.543 26.4045 10.4865C26.2815 10.4488 26.1016 10.5053 25.9123 10.6465C25.6663 10.8348 24.5778 12.0961 23.9816 12.8962C23.8774 13.0374 23.4042 13.461 22.9404 13.8375C21.5207 14.967 19.9969 16.3319 18.369 17.9039C16.9493 19.2876 16.4855 19.6453 16.8641 19.0617C16.9493 18.9393 17.3184 18.5157 17.6781 18.1204C18.0472 17.725 18.3501 17.3579 18.3501 17.3109C18.3501 17.0944 18.0566 17.3862 16.088 19.5982C15.6999 20.0218 15.6905 20.05 15.946 19.9277C16.23 19.777 16.4571 19.7959 16.4571 19.9559C16.4571 20.0124 15.9744 20.5677 15.3876 21.1984C14.356 22.2997 13.1918 23.8905 12.7091 24.8412C12.5861 25.0859 12.1791 25.6413 11.8194 26.0743C10.5511 27.5615 8.50677 30.6772 8.50677 31.1196C8.50677 31.3644 8.03354 32.1927 7.64548 32.6069C7.31422 32.9646 6.3299 34.9319 6.3299 35.2331C6.3299 35.3554 6.04595 36.1273 5.70522 36.9462C5.35503 37.7746 4.92912 38.8853 4.74929 39.4312C4.38963 40.5137 4.31392 40.6549 4.03944 40.6549C3.86908 40.6549 3.85014 40.6173 3.90694 40.2125C3.94479 39.9584 3.99212 39.676 4.02051 39.5724C4.05837 39.4124 4.05837 39.403 3.96372 39.5442C3.9164 39.6289 3.63246 40.429 3.33905 41.3326C3.04565 42.2269 2.75224 43.0552 2.67652 43.1682C2.61028 43.2811 2.39259 44.1189 2.21275 45.0225C2.03293 45.9356 1.77738 47.0086 1.65434 47.404C1.25682 48.6653 1.02967 49.6913 0.849838 50.9903C0.736259 51.7998 0.622688 52.2893 0.528038 52.4022C0.442856 52.4964 0.348213 52.8258 0.310349 53.127L0.244095 53.6824L0.499649 53.5224C0.717331 53.3812 0.755196 53.3718 0.802513 53.4941C0.868767 53.6636 0.887695 56.0262 0.859306 60.375C0.840378 62.3423 0.868767 63.773 0.93502 64.0931C0.991806 64.3755 1.11485 65.1662 1.2095 65.8345C1.3704 67.0111 1.3704 67.0864 1.2095 67.8112C1.06753 68.4324 1.05806 68.7148 1.12431 69.4585C1.22842 70.5409 1.30415 70.9363 1.45558 71.2469C1.52184 71.3787 1.60702 71.7364 1.63541 72.047C1.67326 72.3576 1.80577 73.1389 1.93828 73.7884C2.07079 74.4285 2.15597 75.0497 2.12757 75.1627C1.97614 75.7463 2.75224 78.0054 2.92261 77.5159C3.01725 77.2335 4.47482 80.3963 5.2036 82.4671C5.37396 82.966 5.48754 83.4084 5.45914 83.4461C5.33611 83.559 5.12788 83.3049 4.95752 82.8436C4.80608 82.4389 4.44642 81.9306 4.3707 82.0153C4.35178 82.0341 4.42749 82.2506 4.5316 82.5048C4.64518 82.7495 4.71143 83.0507 4.68304 83.1637C4.64518 83.286 4.71143 83.4837 4.8534 83.6814C4.98591 83.8602 5.32664 84.4721 5.62004 85.0368C5.91345 85.611 6.27311 86.204 6.42455 86.3547C6.56651 86.5147 6.93564 87.0324 7.22904 87.5219C7.52245 88.0113 8.10926 88.9056 8.51624 89.4986C9.73718 91.2682 10.7783 92.8966 10.7783 93.0378C10.7783 93.3861 12.3968 95.4852 14.4222 97.7914C15.0847 98.5444 15.8041 99.3915 16.0123 99.6739C16.5802 100.436 17.1575 101.133 17.9147 101.98C18.3122 102.423 18.4352 102.611 18.227 102.432C17.7254 101.999 17.6307 102.046 17.9715 102.535C18.3122 103.034 18.7854 103.411 18.8517 103.232C18.8706 103.166 18.8517 103.034 18.8044 102.931C18.6151 102.583 19.2871 103.081 20.5175 104.22C21.1705 104.832 21.9845 105.529 22.3252 105.774C22.666 106.009 23.2338 106.442 23.603 106.734C25.0416 107.873 26.5559 108.983 27.0103 109.209C27.2658 109.341 27.6538 109.586 27.8621 109.746C28.5341 110.292 29.49 110.856 29.9064 110.969C30.4365 111.111 31.6479 111.77 32.0739 112.155C32.6228 112.636 33.4084 113.106 34.5441 113.643C36.456 114.528 37.2511 114.81 42.0591 116.278C46.5927 117.662 50.0662 118.396 52.8678 118.547C53.8995 118.603 54.0887 118.65 54.562 118.886C55.0636 119.149 55.1866 119.168 56.8619 119.253C57.8273 119.309 59.1334 119.394 59.7581 119.441C61.0548 119.554 62.6827 119.545 64.2065 119.432ZM4.17194 76.3016C4.13409 76.0287 4.28552 75.9534 4.38017 76.1981C4.47482 76.4428 4.44642 76.6311 4.31392 76.5934C4.25713 76.5652 4.19087 76.4334 4.17194 76.3016ZM2.3074 65.7874C2.12757 65.2132 2.00453 63.1518 2.15597 63.1518C2.3074 63.1518 2.41151 63.4624 2.53455 64.3755C2.60081 64.8179 2.73331 65.6086 2.83743 66.1451C2.93207 66.6816 3.01725 67.4158 3.00779 67.7924V68.4701L2.72385 67.3405C2.56295 66.7193 2.38312 66.0227 2.3074 65.7874ZM1.45558 58.0782C1.52184 56.6757 1.76791 53.6824 1.83417 53.4565C1.8531 53.3812 1.91935 52.7788 1.96667 52.1293C2.07079 50.8868 2.12757 50.6326 2.27901 50.6326C2.43044 50.6326 2.27901 55.565 2.11811 55.9415C2.05186 56.1015 1.91935 56.8545 1.84364 57.5982C1.65434 59.2831 1.60702 59.4996 1.48397 59.4243C1.41772 59.3866 1.40826 58.9254 1.45558 58.0782ZM2.86582 49.7854C2.89421 49.6348 2.951 49.3807 2.97939 49.2207C3.07404 48.7312 3.23494 48.8912 3.17815 49.4089C3.1119 49.9266 3.05511 50.0678 2.91314 50.0678C2.85635 50.0678 2.83743 49.9549 2.86582 49.7854ZM3.51888 48.4488C3.54728 48.3829 3.56621 48.43 3.56621 48.5618C3.56621 48.6935 3.54728 48.7406 3.51888 48.6841C3.49995 48.6182 3.49995 48.5053 3.51888 48.4488ZM3.53781 47.3475C3.57567 47.0557 3.62299 46.5286 3.63246 46.1615C3.66085 45.5026 4.20981 43.7047 4.48428 43.3847C4.75876 43.0646 4.82501 42.8293 4.70197 42.6316C4.59785 42.4716 4.66411 42.208 5.12788 40.8055C5.65791 39.2241 6.36775 37.5863 6.68955 37.238C6.8126 37.0968 6.82206 37.0498 6.71795 36.9839C6.60437 36.918 6.6517 36.7485 6.9451 36.0708C7.47512 34.8377 7.73067 34.3671 8.04301 34.0376C8.2039 33.8776 8.28909 33.727 8.2323 33.7082C8.02408 33.6423 8.13765 33.3034 8.82858 31.948C9.57629 30.4795 9.76558 30.2066 10.0306 30.2066C10.2104 30.2066 10.3997 29.9901 10.8162 29.3029C11.3178 28.4558 11.1758 29.0676 10.6363 30.0936C10.3335 30.649 9.91702 31.5055 9.69933 31.995C9.48164 32.4845 9.0368 33.3411 8.715 33.8964C8.3932 34.4612 8.12819 34.9507 8.12819 34.9977C8.12819 35.0354 7.86317 35.6849 7.55084 36.4285C7.22904 37.1721 6.7842 38.3111 6.54758 38.9606C6.32043 39.6101 5.85666 40.7396 5.51593 41.4738C5.13734 42.321 4.91019 42.9422 4.91019 43.1493C4.91019 43.5353 4.14355 46.6509 3.85014 47.451C3.60406 48.1288 3.44317 48.0723 3.53781 47.3475Z" fill="#8C2446"/>
<path d="M7.21731 36.1838C7.30252 35.939 7.28358 35.8825 7.16997 36.0708C7.11317 36.165 7.08477 36.2686 7.11317 36.2874C7.1321 36.3156 7.17944 36.2686 7.21731 36.1838Z" fill="#8C2446"/>
<path d="M77.6452 117.794C77.8534 117.729 78.639 117.474 79.3961 117.23C81.0714 116.684 83.7404 115.658 83.5984 115.611C83.5417 115.592 83.2861 115.658 83.0306 115.752C82.1787 116.091 77.6452 117.634 77.3423 117.7C77.0016 117.766 76.8217 117.936 77.0962 117.926C77.1909 117.926 77.4369 117.86 77.6452 117.794Z" fill="#8C2446"/>
<path d="M56.1804 116.73C56.275 116.665 56.275 116.627 56.1804 116.495C56.0952 116.382 55.7355 116.307 54.7228 116.194C53.0002 116.015 52.9339 116.015 53.0854 116.194C53.18 116.307 53.1706 116.345 53.0475 116.392C52.8298 116.476 51.6183 116.345 51.1451 116.194C50.7286 116.053 50.5299 116.024 50.1134 116.043C49.6213 116.062 49.9147 116.156 51.0599 116.345C53.5397 116.749 55.8775 116.928 56.1804 116.73Z" fill="#8C2446"/>
<path d="M49.3929 115.356C49.2131 115.28 48.9575 115.215 48.8345 115.215C48.7114 115.205 48.3234 115.12 47.9826 115.026C47.2727 114.819 46.4777 114.678 46.5723 114.782C46.7049 114.923 48.5127 115.393 49.0995 115.441C49.7147 115.488 49.7147 115.488 49.3929 115.356Z" fill="#8C2446"/>
<path d="M41.6326 114.085C41.6326 113.991 41.1593 113.85 41.0931 113.916C41.0741 113.944 41.1877 114 41.3392 114.057C41.5001 114.113 41.6326 114.123 41.6326 114.085Z" fill="#8C2446"/>
<path d="M38.4618 112.476C38.4334 112.429 38.3861 112.382 38.3577 112.382C38.3388 112.382 38.3199 112.429 38.3199 112.476C38.3199 112.532 38.3672 112.57 38.424 112.57C38.4713 112.57 38.4902 112.532 38.4618 112.476Z" fill="#8C2446"/>
<path d="M29.4039 111.638C29.0632 111.346 28.2966 110.932 28.2209 110.998C28.1831 111.045 29.5269 111.911 29.6499 111.911C29.6878 111.911 29.5742 111.789 29.4039 111.638Z" fill="#8C2446"/>
<path d="M37.2777 111.694C37.202 111.619 36.6625 111.346 36.0852 111.082C35.1576 110.677 34.2679 110.207 31.7882 108.804C30.8417 108.268 29.8006 107.581 29.8006 107.487C29.8006 107.439 29.6113 107.298 29.3842 107.166C28.8731 106.875 27.4439 105.82 25.7781 104.521C25.0966 103.994 24.1028 103.251 23.5539 102.874C22.1531 101.905 20.175 100.389 19.0108 99.4008C17.9413 98.4972 17.5816 98.3842 18.5281 99.2596C18.8783 99.5796 19.1055 99.862 19.1055 99.9844C19.1055 100.229 20.5346 101.632 21.8881 102.705C24.0744 104.446 26.0999 105.773 29.1381 107.487C29.9994 107.967 30.9742 108.541 31.315 108.757C32.2425 109.35 32.9429 109.755 34.249 110.452C34.9021 110.79 35.5551 111.195 35.716 111.346C35.9243 111.534 36.1325 111.619 36.4732 111.656C36.7288 111.685 37.0506 111.741 37.1831 111.779C37.3913 111.835 37.4008 111.826 37.2777 111.694Z" fill="#8C2446"/>
<path d="M33.0662 110.462C32.6403 110.085 31.9304 109.643 30.9839 109.134C30.2267 108.73 30.1604 108.711 30.3687 108.937C30.6242 109.219 31.2678 109.614 32.5456 110.283C33.1703 110.612 33.2839 110.65 33.0662 110.462Z" fill="#8C2446"/>
<path d="M27.5676 110.414C27.4067 110.103 27.1133 109.887 26.9619 109.981C26.9145 110.009 26.782 109.99 26.6779 109.934C26.5738 109.877 26.4886 109.849 26.4886 109.868C26.4886 109.906 26.6968 110.047 27.454 110.536L27.7096 110.706L27.5676 110.414Z" fill="#8C2446"/>
<path d="M26.3933 109.802C26.3933 109.755 24.2543 108.193 23.942 108.014C23.8094 107.939 23.8094 107.948 23.923 108.08C24.1596 108.372 25.7024 109.558 25.8444 109.558C25.9106 109.558 26.0715 109.623 26.1851 109.708C26.2987 109.783 26.3933 109.831 26.3933 109.802Z" fill="#8C2446"/>
<path d="M99.1402 106.254C99.3484 106.028 99.3673 105.981 99.2159 106.056C98.9887 106.178 98.7521 106.432 98.8184 106.498C98.8373 106.527 98.9887 106.414 99.1402 106.254Z" fill="#8C2446"/>
<path d="M16.1724 100.775C16.1724 100.709 15.9357 100.427 15.6423 100.145C15.065 99.5799 13.3992 97.509 12.6326 96.3889C12.3676 96.003 11.9133 95.4288 11.6293 95.1181C11.3359 94.7981 10.9573 94.3369 10.787 94.0733C10.6071 93.8192 10.3327 93.4521 10.1623 93.2732C9.99193 93.0944 9.69853 92.7084 9.50923 92.4261C9.10225 91.8142 9.07386 91.8613 9.41459 92.5484C9.8405 93.3673 10.4178 94.2239 10.5977 94.2898C10.8059 94.3745 12.8503 97.0854 13.2288 97.7914C13.5412 98.3656 14.4687 99.4199 15.4341 100.314C16.1061 100.926 16.1724 100.973 16.1724 100.775Z" fill="#8C2446"/>
<path d="M17.6688 97.4152C17.5458 97.227 17.4039 97.1611 17.4039 97.3023C17.4039 97.3964 17.6121 97.6035 17.7067 97.6035C17.754 97.6035 17.7351 97.5188 17.6688 97.4152Z" fill="#8C2446"/>
<path d="M17.024 96.5964C17.024 96.5022 16.1439 95.4386 16.0965 95.4856C16.0681 95.5045 16.1249 95.6363 16.2101 95.7586C16.2953 95.8904 16.3615 96.0598 16.3615 96.1257C16.3615 96.2857 16.6928 96.5964 16.8821 96.6246C16.9578 96.634 17.024 96.6246 17.024 96.5964Z" fill="#8C2446"/>
<path d="M12.9927 93.0945C12.8981 92.925 12.7372 92.7274 12.6426 92.6426C12.4911 92.5015 12.4817 92.5015 12.4817 92.6709C12.4817 92.765 12.6331 92.9721 12.8318 93.1227L13.1725 93.3957L12.9927 93.0945Z" fill="#8C2446"/>
<path d="M13.3335 91.8423C13.3335 91.7576 11.9232 89.6021 11.8664 89.6021C11.8002 89.6021 13.0306 91.5976 13.201 91.767C13.2767 91.8423 13.3335 91.8705 13.3335 91.8423Z" fill="#8C2446"/>
<path d="M11.2877 88.473C10.9375 87.7388 10.6535 87.3246 10.5873 87.4376C10.4737 87.6164 10.3507 87.4846 9.95313 86.7975C9.67864 86.308 9.59345 86.2139 9.56506 86.3739C9.50827 86.7692 10.4075 88.1906 10.7198 88.1906C10.8334 88.1906 11.0416 88.3224 11.1836 88.4918L11.4486 88.8024L11.2877 88.473Z" fill="#8C2446"/>
<path d="M8.60064 83.1168C8.18421 82.1567 7.81511 81.3566 7.79618 81.3284C7.76779 81.3096 7.74886 81.3755 7.74886 81.479C7.74886 81.7049 8.22207 82.8345 8.72367 83.8134C9.39563 85.1312 9.33884 84.8112 8.60064 83.1168Z" fill="#8C2446"/>
<path d="M4.34058 81.8747C4.34058 81.7147 3.35631 79.785 3.32792 79.8885C3.29953 79.9544 3.41309 80.2651 3.57398 80.5945C3.8863 81.2158 4.34058 81.9688 4.34058 81.8747Z" fill="#8C2446"/>
<path d="M0.20452 63.3875C0.280205 62.3614 0.289666 59.5564 0.213981 59.4905C0.0815324 59.3493 0.0342294 59.8011 0.00584757 61.5331C-0.0130737 62.6062 0.0153082 63.6698 0.0626112 63.9052C0.138296 64.3005 0.147757 64.2629 0.20452 63.3875Z" fill="#8C2446"/>
<path d="M120 53.9554C120 53.6354 119.706 52.1857 119.631 52.1104C119.489 51.9692 119.498 52.2045 119.668 53.1741C119.744 53.6165 119.81 53.9837 119.81 54.0025C119.81 54.0119 119.848 54.0213 119.905 54.0213C119.952 54.0213 120 53.9931 120 53.9554Z" fill="#8C2446"/>
<path d="M119.157 48.8816L119.166 48.4204L119.346 48.7969C119.564 49.2676 119.564 49.1264 119.346 48.0062C119.233 47.4226 119.119 47.0932 119.015 47.0367C118.93 46.9896 118.778 46.792 118.674 46.6037C118.561 46.4154 118.504 46.3401 118.523 46.4437C118.551 46.5472 118.674 47.2155 118.807 47.9403C118.939 48.6557 119.062 49.2676 119.1 49.2958C119.129 49.3241 119.147 49.1358 119.157 48.8816Z" fill="#8C2446"/>
<path d="M118.06 44.3263C117.984 44.0627 117.909 43.8086 117.88 43.7803C117.786 43.6956 117.814 43.9968 117.928 44.3357C118.107 44.8628 118.202 44.8628 118.06 44.3263Z" fill="#8C2446"/>
<path d="M117.691 41.4836C117.663 41.3236 117.53 40.9753 117.407 40.7118C117.208 40.2976 117.18 40.2693 117.171 40.4858C117.161 40.7494 117.578 41.7849 117.691 41.7849C117.72 41.7849 117.729 41.6531 117.691 41.4836Z" fill="#8C2446"/>
<path d="M6.08263 34.0469C6.17727 33.6893 6.13942 33.6234 5.99745 33.8775C5.83655 34.1504 5.82708 34.254 5.94066 34.254C5.98798 34.254 6.04477 34.1599 6.08263 34.0469Z" fill="#8C2446"/>
<path d="M6.47129 33.1347C6.49968 33.0406 6.74576 32.6076 7.01077 32.1746C7.27577 31.7416 7.54078 31.2333 7.60703 31.0451C7.67328 30.8568 7.83418 30.5368 7.96668 30.3391C8.26008 29.8684 8.74277 28.9083 8.61973 29.0307C8.26008 29.3884 6.15896 33.3136 6.31986 33.3136C6.36718 33.3136 6.43343 33.2382 6.47129 33.1347Z" fill="#8C2446"/>
<path d="M9.43421 27.9289C9.79385 27.3924 10.2955 26.7052 10.5321 26.404C10.9107 25.9145 11.0716 25.5945 10.9296 25.5945C10.8444 25.5945 10.0115 26.7334 9.56671 27.4488C8.76223 28.7478 8.67705 28.889 8.72437 28.889C8.75277 28.889 9.06509 28.456 9.43421 27.9289Z" fill="#8C2446"/>
<path d="M12.2062 24.9166C12.509 24.493 12.8592 23.8812 12.6888 24.0412C12.3386 24.3989 11.7235 25.1425 11.7235 25.2178C11.7235 25.4249 11.9317 25.2931 12.2062 24.9166Z" fill="#8C2446"/>
<path d="M13.6546 22.8552C13.7492 22.6952 13.806 22.5446 13.7776 22.5258C13.7303 22.4787 13.3329 22.9869 13.3329 23.0904C13.3329 23.241 13.5032 23.1187 13.6546 22.8552Z" fill="#8C2446"/>
<path d="M104.571 19.1181C104.571 19.0052 103.492 17.9697 103.369 17.9697C103.161 17.9697 103.237 18.1674 103.568 18.478C103.909 18.7981 104.571 19.2217 104.571 19.1181Z" fill="#8C2446"/>
<path d="M22.2763 13.8752C22.6833 13.5269 22.6644 13.461 22.229 13.6869C21.964 13.8187 21.6612 14.2046 21.8221 14.2046C21.8599 14.1952 22.0681 14.054 22.2763 13.8752Z" fill="#8C2446"/>
<path d="M30.2361 10.1855C30.539 9.99722 31.0785 9.67719 31.4381 9.47012C31.7883 9.26304 32.0628 9.07479 32.0344 9.05597C31.9776 8.99949 29.9332 10.1478 29.7534 10.3455C29.5168 10.609 29.5925 10.5808 30.2361 10.1855Z" fill="#8C2446"/>
<path d="M29.8114 8.34075C30.5307 7.89837 31.127 7.50305 31.127 7.45599C31.127 7.41834 30.3225 7.83248 29.4518 8.33134C29.1584 8.50076 29.0448 8.65135 29.2152 8.65135C29.2625 8.65135 29.5275 8.51017 29.8114 8.34075Z" fill="#8C2446"/>
<path d="M40.1455 3.56798C40.3916 3.48326 40.5903 3.37031 40.5903 3.32324C40.5714 3.22911 40.4957 3.23853 39.9467 3.4362C39.729 3.52091 39.5492 3.62446 39.5492 3.67152C39.5492 3.77507 39.5776 3.77507 40.1455 3.56798Z" fill="#8C2446"/>
<path d="M42.5022 2.73082C42.7009 2.6367 42.8902 2.53316 42.9281 2.50493C43.0227 2.4108 41.9722 2.73082 41.8681 2.82495C41.7261 2.96613 42.1236 2.90966 42.5022 2.73082Z" fill="#8C2446"/>
<path d="M51.2392 0.838526C51.3149 0.71626 50.8133 0.71626 50.624 0.838526C50.5199 0.904361 50.5672 0.932577 50.8322 0.932577C51.0215 0.932577 51.2108 0.894956 51.2392 0.838526Z" fill="#8C2446"/>
<path d="M63.8751 0.207753C63.8751 0.0759996 62.9287 -0.00869916 61.5657 0.000711818C60.6761 0.000711818 60.4773 0.0289447 60.6571 0.104233C60.9789 0.235986 63.8751 0.330096 63.8751 0.207753Z" fill="#8C2446"/>
</svg>
